<?xml version="1.0" encoding="UTF-8" standalone="no"?>
<!-- Created with Inkscape (http://www.inkscape.org/) -->

<svg
   xmlns:dc="http://purl.org/dc/elements/1.1/"
   xmlns:cc="http://creativecommons.org/ns#"
   xmlns:rdf="http://www.w3.org/1999/02/22-rdf-syntax-ns#"
   xmlns:svg="http://www.w3.org/2000/svg"
   xmlns="http://www.w3.org/2000/svg"
   xmlns:sodipodi="http://sodipodi.sourceforge.net/DTD/sodipodi-0.dtd"
   xmlns:inkscape="http://www.inkscape.org/namespaces/inkscape"
   width="1000"
   height="1000"
   viewBox="0 0 264.58333 264.58334"
   version="1.1"
   id="svg8"
   inkscape:version="0.92.3 (2405546, 2018-03-11)"
   sodipodi:docname="NWA Logo.svg">
  <title
     id="title890">NWA Logo</title>
  <defs
     id="defs2" />
  <sodipodi:namedview
     id="base"
     pagecolor="#ffffff"
     bordercolor="#666666"
     borderopacity="1.0"
     inkscape:pageopacity="0.0"
     inkscape:pageshadow="2"
     inkscape:zoom="0.67316566"
     inkscape:cx="443.91854"
     inkscape:cy="471.23458"
     inkscape:document-units="px"
     inkscape:current-layer="layer1"
     showgrid="false"
     units="px"
     inkscape:pagecheckerboard="true"
     inkscape:showpageshadow="false"
     inkscape:window-width="1366"
     inkscape:window-height="705"
     inkscape:window-x="-8"
     inkscape:window-y="-8"
     inkscape:window-maximized="1"
     inkscape:snap-global="true"
     showguides="false" />
  <metadata
     id="metadata5">
    <rdf:RDF>
      <cc:Work
         rdf:about="">
        <dc:format>image/svg+xml</dc:format>
        <dc:type
           rdf:resource="http://purl.org/dc/dcmitype/StillImage" />
        <dc:title>NWA Logo</dc:title>
      </cc:Work>
    </rdf:RDF>
  </metadata>
  <g
     inkscape:label="Layer 1"
     inkscape:groupmode="layer"
     id="layer1"
     transform="translate(0,-32.41665)">
    <g
       id="g846"
       transform="translate(2.5e-6)">
      <path
         id="path822"
         d="m 136.35062,104.64777 c -1.3939,-3.6e-4 -1.61902,0.67906 -1.70945,1.23207 l -0.69996,8.77409 c 0.01,0.38759 0.09,1.35357 0.93198,1.4617 l 1.72806,0.19372 c 0.96779,0.0561 1.75154,-0.10948 1.87767,-1.17137 l 0.69712,-9.0794 c 0,-0.43406 -0.13316,-1.04178 -1.04361,-1.26901 l -0.89091,-0.0711 z m -8.60955,0.0119 -2.06809,0.22187 1.0498,11.52494 2.01668,-0.20741 z m -8.72117,1.39247 -3.78117,0.97715 0.43562,1.52034 0.87463,-0.21026 2.50347,9.54846 1.93865,-0.4998 -2.44223,-9.55674 0.89219,-0.25907 z m 27.51021,0.12295 -3.15924,11.07835 1.67173,0.51816 1.57562,-5.38317 -0.5041,5.61589 1.70713,0.4887 3.20006,-11.02799 -1.74899,-0.49903 -1.4503,4.90971 0.4638,-5.21062 z m -9.68056,0.12812 c 0.12034,0.007 0.23317,0.0912 0.22428,0.22756 l -0.57439,7.81425 c -0.0256,0.47506 -0.51804,0.33135 -0.49454,-0.009 l 0.57619,-7.80031 c 0.0204,-0.17048 0.14813,-0.23973 0.26846,-0.23246 z m -28.97885,3.44258 -2.43422,1.0975 3.89538,10.95281 1.75674,-0.88052 -0.82398,-2.27895 0.54931,-0.27328 1.16944,2.15367 1.84898,-0.85831 z m 50.80777,0.80666 -6.29988,9.77059 1.77043,0.85341 1.30225,-2.04364 0.55191,0.26811 -0.99245,2.24046 1.80867,0.94021 4.21474,-10.77149 z m -50.58582,2.81958 2.02055,3.52677 -0.55035,0.25778 z m 50.20393,0.82706 -1.56089,3.75306 -0.54002,-0.27819 z m -59.932014,0.80304 -1.460118,1.08355 3.014804,4.13818 -3.85403,-3.53841 -1.457535,1.0944 6.871923,9.2473 1.4286,-1.01074 -3.314262,-4.52561 4.151162,3.81711 1.42679,-1.05695 z m 69.532204,1.04739 -7.03006,9.18916 2.57297,1.91554 1.02577,-1.20961 -0.87901,-0.73356 5.87923,-7.822 z"
         style="opacity:1;fill:#ffffff;stroke-width:0.13226983"
         inkscape:connector-curvature="0" />
      <path
         id="path1099"
         d="m 175.0537,189.32029 -1.55675,2.54527 9.01573,5.52754 1.62884,-2.50185 -1.28649,-0.76663 -0.61004,0.88648 -2.99309,-1.92949 0.49299,-0.89732 -1.20923,-0.72968 -0.64518,0.89784 -2.1288,-1.40539 0.54078,-0.88778 z m -2.66418,4.87794 c -0.17876,-0.0133 -0.35906,0.0366 -0.53329,0.17073 -0.82103,0.66906 -1.21054,1.20041 -1.62961,1.86362 -0.49223,0.75975 -0.0387,1.21792 0.36122,1.59653 2.07468,1.68782 4.13942,3.37884 6.3487,5.0218 0.40067,0.32169 0.91893,0.51639 1.35186,0.15576 0.76249,-0.61506 1.26785,-1.32109 1.66863,-2.09349 0.22226,-0.39559 0.0779,-0.85045 -0.23047,-1.0957 l -2.75229,-2.28903 -1.1666,1.48753 2.23785,1.77115 c 0.21127,0.15021 -2.6e-4,0.57707 -0.29533,0.38331 l -5.6671,-4.44141 c -0.25147,-0.2263 0.0391,-0.58181 0.35243,-0.35749 l 1.46968,1.1533 1.156,-1.4772 -2.14716,-1.64123 c -0.16841,-0.11835 -0.34575,-0.19487 -0.52452,-0.20818 z m -4.39766,4.6948 -1.19166,1.15305 3.21764,3.38471 -3.90546,-2.74285 -1.18804,1.16285 7.31222,7.54717 1.17176,-1.08354 -3.5344,-3.69933 4.20723,2.95929 1.16479,-1.12513 z m -5.66995,5.02982 -2.00142,1.42477 5.47098,9.19227 1.42859,-1.10835 -1.15031,-1.91012 0.447,-0.34457 1.43997,1.73551 1.51593,-1.10474 z m -4.76844,3.16594 -1.64253,0.98411 5.3312,9.2261 1.60507,-0.95208 z m 5.61594,0.0677 2.45334,2.82319 -0.45062,0.33088 z m -10.17096,2.36058 -1.74459,0.7785 4.4142,9.69441 2.71094,-1.24836 -0.5364,-1.35735 -0.99116,0.39211 z m -4.7656,1.93439 -1.77354,0.56644 3.2471,10.09812 2.83418,-0.93556 -0.38059,-1.409 -1.02887,0.27792 z m -5.02037,1.43148 -2.41509,0.45202 1.10044,10.63951 1.76217,-0.40554 -0.24081,-2.2167 0.55035,-0.12476 0.57723,2.17977 1.83994,-0.36548 z m -0.59015,3.29018 1.03948,3.59265 -0.54829,0.11081 z"
         style="opacity:1;fill:#ffffff;stroke-width:0.1217774"
         inkscape:connector-curvature="0" />
      <path
         id="path1095"
         d="m 89.353226,188.95377 -8.261772,6.77617 1.081588,1.60866 5.214928,-2.82164 -4.632018,3.75203 1.038697,1.56451 9.370749,-4.98048 -0.934052,-1.44982 -4.797901,2.69249 4.281394,-3.50845 -0.862737,-1.33668 -4.97205,2.6793 4.449084,-3.45523 z m 5.192707,7.24781 -7.983494,7.14681 1.283386,1.38164 2.843237,-2.54862 c 0.493959,-0.49379 0.860735,-0.11216 0.442092,0.30634 l -2.980956,2.60932 1.291652,1.3824 2.977857,-2.78418 c 0.475822,-0.47566 0.451773,-0.7531 0.467931,-1.27057 0.382066,0.0464 0.791602,0.11299 1.159102,-0.18777 l 2.147673,-1.96642 c 0.699858,-0.59828 0.6683,-1.23366 0.322718,-1.66756 z m 0.108262,2.405 c 0.248187,0.15401 0.262565,0.40522 0.12635,0.54139 l -1.997812,1.82875 c -0.173945,0 -0.368196,-0.0805 -0.442349,-0.3035 z m 4.368211,2.43471 -6.925678,7.99042 2.203744,2.0147 0.966348,-1.14373 -0.775406,-0.74648 2.392363,-2.63721 0.805119,0.63256 0.917514,-1.07373 -0.780829,-0.7829 1.734259,-1.87007 0.78781,0.67803 0.93301,-1.1112 z m 4.471304,3.85767 c -0.42857,-0.0141 -0.77373,0.25611 -0.97101,0.4843 l -1.49293,2.18132 c -0.72089,1.24821 -0.20648,1.48453 0.34804,2.75318 0.23666,0.49527 0.22923,0.56256 0.0351,0.89862 l -1.24385,1.89074 c -0.180258,0.18019 -0.824466,0.34081 -0.391186,-0.40942 l 1.424196,-2.05552 -1.576125,-1.0523 -1.607136,2.39131 c -0.312901,0.54178 -0.761759,1.40006 0.110329,1.9034 0.458059,0.3101 0.891446,0.62027 1.414125,0.93037 0.32111,0.32101 1.224697,0.62934 1.642007,-0.0933 l 1.96603,-2.81389 c 0.52129,-0.52112 0.25647,-1.44945 0.10052,-1.71949 l -0.60798,-1.11816 c -0.18592,-0.39024 0.1154,-0.77537 0.22014,-0.95674 l 0.90176,-1.21812 c 0.21313,-0.21307 0.5541,-0.0671 0.27802,0.41094 l -1.12293,1.57098 1.6291,1.06934 1.42834,-2.23763 c 0.20444,-0.495 0.29594,-1.04545 -0.20852,-1.44956 -0.50024,-0.43617 -1.06442,-0.79545 -1.64589,-1.13418 -0.2233,-0.15456 -0.43539,-0.21985 -0.6302,-0.22626 z m 4.85992,2.93528 -0.62916,1.32454 0.73742,0.38951 -4.11319,8.17536 1.65468,0.84024 4.16098,-8.14359 0.7793,0.36653 0.63896,-1.31525 z m 5.19114,2.44013 -3.74472,9.9718 2.79904,1.03628 0.58188,-1.33849 -0.97772,-0.42438 3.12514,-8.56099 z m 4.87826,1.71379 -2.75642,10.2921 1.80842,0.46158 2.80552,-10.28849 z m 4.24213,1.10656 -1.67149,10.51913 1.5919,0.29058 0.84982,-5.11582 0.15993,5.21088 1.6211,0.25932 1.71435,-10.47754 -1.66035,-0.26424 -0.78703,4.66742 -0.15219,-4.83428 z m 7.92096,0.90584 c -1.37107,0 -1.32266,0.82285 -1.32266,1.50276 l -0.17053,7.58644 c 0,0.71005 0.12145,1.05782 0.49403,1.36846 0.44813,0.37364 1.20792,0.31942 1.7265,0.28878 0.28328,-0.17755 0.89581,-0.49723 0.89581,-0.49723 0,0 0.28385,0.23388 0.39843,0.41044 h 0.70202 v -5.49036 h -2.07636 v 1.22923 l 0.22454,0.20483 v 2.43911 c 0,0.24398 -0.36458,0.3287 -0.36458,0 v -7.17266 c 0,-0.50239 0.53485,-0.46534 0.53485,0 v 1.86931 h 1.82521 l -0.0248,-2.64109 c 0,-0.21914 -0.0938,-1.09802 -1.4733,-1.09802 z"
         style="opacity:1;fill:#ffffff;stroke-width:0.12262312"
         inkscape:connector-curvature="0" />
      <path
         id="path843"
         transform="matrix(0.26458333,0,0,0.26458333,0,32.41665)"
         d="m 501.06445,321.65625 c -32.68565,-0.18066 -65.13969,8.34668 -92.79687,25.16992 -32.20592,19.59005 -57.7353,48.46248 -72.11133,81.55274 l -2.90234,6.67773 h 7.32617 l 0.77148,-1.95898 0.76953,-1.95899 3.79102,1.72656 c 2.0849,0.94988 3.89555,1.83304 4.02344,1.96094 0.12601,0.12586 -1.88361,0.22745 -4.46485,0.23047 h 33.38672 c -3.56594,-0.065 -6.35742,-0.22416 -6.35742,-0.50195 0,-0.90044 3.55718,-9.60817 6.2793,-15.37305 3.12963,-6.62782 8.45596,-15.74986 12.47265,-21.36133 1.57421,-2.19927 2.93171,-4.07585 3.01758,-4.16992 0.17462,-0.19162 15.17922,5.27006 16.18359,5.89063 0.48288,0.29858 0.0533,1.43218 -1.73828,4.58593 -5.19836,9.15107 -11.59745,23.50852 -13.50781,30.30664 -0.0952,0.33941 -4.24354,0.54701 -8.94531,0.62305 h 25.00586 c -5.09715,0 -9.26758,-0.0994 -9.26758,-0.22266 0,-0.12321 0.6882,-2.12545 1.5293,-4.44921 1.5027,-4.15159 1.56128,-4.2289 3.375,-4.45704 1.0151,-0.12774 2.53756,-0.52104 3.38281,-0.875 0.64494,-0.27023 1.51557,-0.41604 2.22461,-0.39257 0.23622,0.008 0.45471,0.034 0.64062,0.082 2.27426,0.57063 4.77157,3.18788 5.55469,5.82422 0.39424,1.32706 0.96557,2.88169 1.27149,3.45312 0.55389,1.03514 0.51851,1.03711 -8.71094,1.03711 L 436,435.26758 v 0.28906 h 7.75 v -0.22266 l 26.23828,0.22266 0.29688,-2.62305 c 0.45562,-3.25254 0.73719,-3.82692 1.23828,-2.52929 1.15733,2.99709 5.23525,3.3062 8.87304,0.67187 2.01238,-1.45727 3.78627,-4.44091 3.50586,-5.89648 -0.20938,-1.08718 -2.22868,-2.10188 -4.20507,-2.11133 -2.04106,-0.0113 -3.98231,-1.84816 -4.67774,-4.42969 -0.30123,-1.11859 -0.76569,-2.1687 -1.0332,-2.33398 -0.74498,-0.46027 -0.57788,-2.23708 0.24023,-2.55078 0.0854,-0.034 0.3738,-0.0497 0.82617,-0.0527 3.16611,-0.0227 14.31167,0.61825 19.32227,1.1543 l 2.625,0.28125 v 10.04297 c 0,5.52419 -0.35742,10.37695 -0.35742,10.37695 H 504 v -4.8125 -4.3125 l 2.875,0.32422 c 3.02627,0.3428 6.87497,1.3656 8.59375,2.28516 1.26743,0.67808 2.53125,3.04741 2.53125,4.74218 v 1.77344 h 20 c -3.4e-4,-0.003 -0.45019,-4.54295 -1,-8.49414 -1.18877,-8.54362 -1.44588,-9.02506 0.625,-9.01172 v -0.002 c 0.29594,0.002 0.64023,0.0156 1.03516,0.0156 8.20512,0 12.69977,4.52122 13.64257,13.72071 l 0.33594,3.77148 H 568.5 c -0.83577,-0.0227 -2.11682,-4.11084 -2.31445,-6.99609 l -0.1875,-2.75 1.49023,4.49804 c 0.8202,2.47416 1.49629,5.1793 1.50195,5.24805 h 2.37696 l 0.13672,15.71484 c 0.004,-2.40699 0.0878,-4.28667 0.1914,-4.17578 0.10696,0.11452 0.56058,1.99147 1.00781,4.17188 0.64937,3.16656 0.6852,4.04454 0.17969,4.36523 -1.16046,0.73641 -1.35011,0.27441 -1.37109,-3.47265 l 0.10742,12.86914 c 0.0302,-0.75134 0.055,-1.40294 0.0762,-2.23047 l 1.39453,-0.15625 c 0.27402,-0.0302 0.49374,-0.0689 0.67383,-0.0606 0.78055,0.034 0.83302,0.92254 1.47656,6.79102 0.26835,2.44607 0.21394,2.60886 -1.31835,3.56054 2.68917,-1.30325 5.61977,-2.53802 8.71679,-3.65234 -1.12388,-0.45324 -1.07775,-1.67136 -1.22851,-4.94727 l -0.16016,-3.46093 12.49805,-3.6211 c 6.87409,-1.99117 12.54827,-3.57286 12.60742,-3.51367 0.13984,0.13984 2.97341,14.44437 3.38281,17.07617 0.21203,1.36411 0.22636,1.83695 -0.46484,2.44727 2.35461,-0.7502 5.07484,-0.94542 8.38476,-1.33203 -1.0704,-0.19994 -1.1582,-0.49979 -1.1582,-1.29492 0,-0.69536 -0.81539,-5.28228 -1.8125,-10.19336 -0.99715,-4.91112 -1.72841,-9.0073 -1.625,-9.10157 0.42671,-0.38906 19.65734,-7.78515 20.24219,-7.78515 1.0391,0 4.27983,11.57355 6.17969,22.06836 0.48438,2.67609 0.67416,3.965 0.5957,5.27343 3.81229,-6.67657 6.04751,-14.66753 17.61328,-14.88281 l 6.61133,1.12305 c 2.7349,-0.39644 4.67189,-1.75286 10.58398,1.66992 l 0.006,-0.13867 c -0.0302,0.008 -0.0609,0.0151 -0.0723,-0.002 -0.12889,-0.20826 -1.04907,-3.26296 -2.04297,-6.78907 -12.06218,-42.79385 -39.44811,-79.12431 -77.90235,-103.34375 -7.16863,-4.51494 -23.78128,-12.69091 -31.87109,-15.68554 -19.94033,-7.38131 -40.98726,-11.07511 -61.93945,-11.19141 z m 67.92578,113.90039 h -0.46484 c 0.26151,-0.003 0.46855,0.0665 0.46484,0 z m -72.34765,0 c 0,0 -0.59044,-1.76021 -0.875,-2.63086 -0.96873,-2.96353 -5.2921,-4.80637 -7.4961,-3.19531 -0.90939,0.66516 -0.91019,2.90324 -0.004,5.82617 h 0.34961 z m 31.51758,-93 c 1.58974,0.0189 3.82634,0.51168 5.48242,1.3457 4.08022,2.05501 5.47352,3.18737 5.20117,4.22852 -0.17877,0.68421 1.26226,2.22482 5.67187,6.06055 3.25134,2.82814 5.92705,5.27054 5.94727,5.42773 0.0189,0.15723 -1.97511,0.8868 -4.43555,1.62305 -2.46047,0.73629 -4.55527,1.33984 -4.65429,1.33984 -0.55801,0 -15.35904,-19.11109 -15.11133,-19.51172 0.2245,-0.36321 0.9446,-0.52391 1.89844,-0.51367 z m -13.65235,3.59961 c 0.0556,-0.008 0.18409,0.13869 0.38281,0.42578 1.70344,2.46482 4.24173,5.00391 5.00391,5.00391 0.42762,0 1.17538,-0.36058 1.66211,-0.80078 1.01987,-0.92262 1.31377,-0.64301 7.8457,7.49609 5.0566,6.30074 4.99864,6.15624 2.73047,6.75 -3.83607,1.00426 -9.65308,1.92002 -9.8789,1.55469 -0.28574,-0.46186 -5.38686,-13.52141 -7.03125,-18 -0.60605,-1.65067 -0.83666,-2.41302 -0.71485,-2.42969 z m -28.1914,0.0801 c 0.11225,0.11225 -1.48091,4.99266 -3.54102,10.84375 -2.06022,5.85105 -3.808,10.68045 -3.88477,10.73242 -0.0767,0.0518 -2.61568,-0.3031 -5.64062,-0.78711 -3.02498,-0.48435 -5.79449,-0.89434 -6.1543,-0.91211 -0.66519,-0.034 1.57722,-3.12399 6.48633,-8.9414 2.0586,-2.43958 3.29167,-3.41106 5.39649,-4.25 2.16733,-0.864 3.17882,-1.68293 4.92968,-3.98829 1.21191,-1.59571 2.29592,-2.80955 2.40821,-2.69726 z m 64.79492,3.77539 c 1.66745,-0.0378 6.31387,0.93224 8.4414,1.88672 4.37828,1.96418 4.49684,2.36159 1.16016,3.88867 -1.55803,0.71305 -2.97533,1.29202 -3.14844,1.28711 -0.39084,-0.0113 -7.06445,-6.4947 -7.06445,-6.86328 0,-0.12888 0.22638,-0.19053 0.61133,-0.19922 z m -42.72852,1.48633 c 0.86623,0.0677 1.36898,1.24223 3.97852,8.03711 1.73208,4.51014 3.06547,8.28403 2.96289,8.38672 -0.1028,0.1028 -2.81046,0.32806 -6.01758,0.5 l -5.83008,0.3125 0.13672,-8.44922 0.13672,-8.44922 1.5,-0.0605 c 0.825,-0.034 2.05532,-0.14606 2.73242,-0.25 0.14589,-0.0227 0.27665,-0.0394 0.40039,-0.0273 z m -16.79101,0.89843 c 0.0227,-0.008 0.0425,-0.008 0.0645,0 0.15345,0.042 0.33224,0.39926 0.64258,1.13672 0.76403,1.81644 1.57361,1.93983 3.38476,0.51563 L 497,353.01172 v 7.73047 c 0,6.58783 -0.11675,7.77464 -0.79102,8.0332 -0.43494,0.16706 -1.61628,0.26114 -2.625,0.20899 C 487.65171,368.67861 486,368.48329 486,368.08398 c 0,-0.3956 4.30925,-12.80102 5.27148,-15.17578 0.12246,-0.30198 0.21903,-0.47917 0.32032,-0.51172 z m -80.52344,0.6875 c 0.22753,0 0.56153,0.61902 0.74219,1.375 0.18066,0.75602 0.54951,1.65641 0.82031,2 0.59312,0.75277 2.58016,0.81513 3.87695,0.1211 0.68807,-0.36813 1.41967,-0.27691 2.7168,0.3418 l 1.77539,0.84765 -1.10547,1.17578 c -0.60797,0.64691 -2.09993,1.42624 -3.31641,1.73242 -1.58554,0.39916 -2.44028,0.95991 -3.01953,1.98243 -0.44439,0.78447 -5.46302,6.14847 -11.15234,11.91992 -5.68925,5.77145 -10.52678,10.4758 -10.75,10.45312 -0.94186,-0.0956 -13.15625,-6.15566 -13.15625,-6.52734 0,-0.59093 9.84559,-9.19279 16.25,-14.19727 5.57065,-4.35295 15.56019,-11.22461 16.31836,-11.22461 z m 52.25391,2.24805 c 0.506,0.004 0.98177,0.0586 1.36914,0.16406 1.24025,0.33752 1.23159,0.35674 -1.75,4.33594 -1.64792,2.19923 -3.15251,4.13368 -3.34375,4.29688 -0.19125,0.16327 -1.16562,0.09 -2.16602,-0.16211 l -1.81836,-0.45899 1.73828,-3.33593 c 0.95619,-1.83568 1.94628,-3.59007 2.20117,-3.89844 0.46474,-0.56236 2.25164,-0.95559 3.76954,-0.93946 z m 114.19921,7.93359 c 1.26142,0.0726 3.30685,1.66579 7.72852,5.91602 1.92503,1.85034 3.38757,3.35524 3.25,3.34375 -0.84227,-0.0699 -12.5,-7.7914 -12.5,-8.2793 0,-0.32882 0.46036,-0.74329 1.02344,-0.92187 0.15269,-0.0484 0.31784,-0.0688 0.49804,-0.0586 z m -23.79492,2.61329 c 0.59917,-0.0612 0.78979,0.13606 1.02344,0.54297 1.16852,2.03433 3.21421,3.65625 4.60742,3.65624 1.22582,0 2.19273,0.91496 6.66406,6.30079 2.87641,3.46465 7.51376,9.48196 10.30664,13.37109 l 5.07813,7.07031 -1.82813,0.65625 c -1.00539,0.36133 -4.81901,1.4305 -8.4746,2.375 -3.65556,0.94451 -6.80898,1.7168 -7.00782,1.7168 -0.1988,0 -2.01062,-3.31814 -4.02734,-7.37305 -3.76388,-7.56782 -9.20343,-17.11699 -12.69727,-22.29101 -1.0854,-1.6074 -1.78147,-3.09607 -1.54687,-3.3086 0.23471,-0.21278 2.22575,-0.9835 4.42578,-1.71484 1.86962,-0.62147 2.87743,-0.9408 3.47656,-1.00195 z m 41.20313,3.20117 h 3.33398 c 3.61372,0 6.43076,0.99441 7.27344,2.56836 0.27666,0.51662 0.43916,2.74483 0.35937,4.95117 l -0.14648,4.01172 -5.41016,-5.76563 z m -143.51367,0.24414 c 0.46662,-0.003 0.97795,0.13745 1.76171,0.36914 l 2.15625,0.63672 -3.93945,6.24804 c -2.16578,3.43631 -5.93363,10.25993 -8.37305,15.16602 -3.91989,7.88364 -4.49796,8.80066 -4.98828,7.88477 -0.91101,-1.70166 -2.22185,-2.13537 -4.11328,-1.36329 -1.52319,0.62189 -2.15407,0.5437 -7.16992,-0.88867 -5.39289,-1.54004 -5.49659,-1.599 -5.39844,-2.98242 0.19238,-2.70837 2.82842,-4.32226 7.06055,-4.32226 3.80024,0 4.90735,-1.31501 5.30469,-6.30274 0.17272,-2.16873 0.59469,-4.50609 0.9375,-5.19336 0.87401,-1.75226 4.95267,-4.36067 8.28515,-5.29883 1.54666,-0.43536 3.99778,-1.56245 5.44727,-2.50586 1.59696,-1.03937 2.2517,-1.4422 3.0293,-1.44726 z m 87.09765,1.29297 c 0.10885,-0.008 0.17471,-5.2e-4 0.18945,0.0156 1.68148,1.84173 12.20619,19.76954 15.74024,26.8125 2.16922,4.3231 2.14287,4.45867 -0.69336,3.76172 -1.52289,-0.37417 -2.0408,-0.95007 -3.45703,-3.84375 -1.37046,-2.8001 -3.6829,-4.79253 -6.79492,-5.85351 -2.81137,-0.95853 -5.66203,-3.15767 -7.97461,-6.1543 -3.11532,-4.03673 -5.71379,-4.35126 -6.72852,-0.81445 -0.43619,1.52046 -0.56928,1.26368 -2.35937,-4.54493 -1.04346,-3.386 -1.73668,-6.29521 -1.54102,-6.46484 0.43707,-0.3789 11.98416,-2.82188 13.61914,-2.91406 z m -76.17187,1.3457 6.70508,1.08984 c 3.68734,0.59906 6.95354,1.16868 7.25976,1.26563 0.36095,0.11414 -0.79659,5.24172 -3.29297,14.58789 -2.11718,7.92669 -4.00142,15.03113 -4.18945,15.78711 -0.18784,0.75602 -0.50803,1.35303 -0.70899,1.32812 -5.36632,-0.66504 -22.08464,-3.75659 -22.48632,-4.1582 -0.5878,-0.5876 12.55589,-24.46335 15.80859,-28.7168 z m 54.125,2.65625 c 1.27986,0.0151 1.49935,0.23508 1.65234,0.77344 0.14589,0.51364 1.19011,3.97037 2.32227,7.68164 1.13212,3.71131 2.05449,6.97312 2.04882,7.24805 -0.008,0.27515 -0.90586,1.13243 -2,1.90625 l -1.99023,1.4082 v 4.17969 c 0,2.86325 0.21464,4.39654 0.68164,4.86328 0.37493,0.37493 2.1749,1.3144 4,2.08984 4.85907,2.06442 4.41139,2.64382 -2.30664,2.98242 -3.09381,0.1561 -8.15623,0.39753 -11.25,0.53711 L 504,408.54297 v -1.4707 c 0,-1.70684 1.43938,-2.72732 3.33398,-2.36524 2.14447,0.40985 2.83559,-0.87436 2.48243,-4.61133 -0.17008,-1.80132 -0.31061,-4.23202 -0.3125,-5.40039 -0.004,-3.32742 -2.73744,-5.31665 -4.66016,-3.39453 -0.63689,0.6367 -0.76552,0.53509 -1.03516,-0.8125 C 503.63927,389.6414 503.5,385.96601 503.5,382.32031 v -6.6289 l 2.125,-0.28907 c 1.16874,-0.15836 4.39768,-0.43491 7.17578,-0.61523 1.74747,-0.11339 2.89809,-0.17742 3.66602,-0.16797 z m -32.10742,0.49805 c 1.045,-0.008 3.40938,0.0777 6.10546,0.22656 L 497,375.70508 v 16.18164 16.17969 l -4.625,-0.0723 c -6.27817,-0.0983 -16.03274,-0.92048 -16.52344,-1.39258 -0.4312,-0.41484 2.41908,-12.33901 5.74219,-24.02539 1.13352,-3.98619 2.12171,-7.32517 2.19727,-7.41992 0.0189,-0.0227 0.21996,-0.0379 0.56836,-0.0391 z m 135.71093,1.32422 1.95508,1.91015 c 1.07577,1.05014 1.90548,1.95242 1.8418,2.00586 -0.0639,0.0537 -1.29845,0.69103 -2.74219,1.41602 l -2.625,1.31836 v -1.44727 c 0,-0.79582 0.35338,-2.29139 0.78516,-3.32422 z m -43.74414,1.3125 c 0.68784,0.0775 2.30972,1.61076 2.72071,2.6914 0.75488,1.98486 0.21657,1.85712 -1.54688,-0.36914 -0.89133,-1.12501 -1.52279,-2.14327 -1.4043,-2.26172 0.0541,-0.054 0.1322,-0.0715 0.23047,-0.0605 z m 23.26563,5.89062 1.55273,1.83789 c 0.85463,1.01193 1.87852,2.23007 2.27344,2.70508 0.65329,0.78573 0.49768,0.95733 -1.72461,1.91211 -1.34332,0.57717 -4.97593,1.9254 -8.07227,2.99414 l -5.6289,1.94141 -1.35742,-2.04688 -1.35547,-2.04883 1.73632,-1.47656 c 2.30064,-1.95492 3.52624,-2.38867 6.73438,-2.38867 3.47913,0 5.14589,-0.66236 5.53125,-2.19727 z M 411.29492,384.209 v 0.002 c 0.51923,0.034 0.91847,0.21619 1.45313,0.5664 1.16288,0.76169 1.25195,1.10354 1.25195,4.80664 0,2.19296 -0.0562,3.97099 -0.125,3.94922 -0.0688,-0.0227 -0.4625,-0.16402 -0.875,-0.31445 -0.4125,-0.15043 -3.56248,-1.27812 -7,-2.50586 -3.43752,-1.22774 -6.40491,-2.37973 -6.5957,-2.56055 -0.19087,-0.18104 0.48421,-0.33959 1.5,-0.35546 1.12199,-0.0151 2.6307,-0.5443 3.8457,-1.34571 1.10003,-0.72552 3.0679,-1.58295 4.37305,-1.90625 1.01333,-0.25096 1.65264,-0.3692 2.17187,-0.33594 z m -38.00586,0.0605 v 0.002 c 0.67155,0.0575 3.95866,1.41484 7.63086,3.16211 l 7.1211,3.38868 -2.53516,3.5957 c -6.63095,9.40543 -13.87194,23.07116 -18.02539,34.01758 -1.17348,3.09275 -2.37989,5.61283 -2.68164,5.59961 -0.64814,-0.0265 -13.37905,-5.69406 -17.20313,-7.65821 l -2.65625,-1.36328 2.60743,-4.84961 c 3.94004,-7.33047 9.40388,-15.93715 14.0996,-22.21094 4.77924,-6.38539 10.63971,-13.32851 11.54493,-13.67578 0.0208,-0.008 0.0529,-0.0116 0.0976,-0.008 z m 255.35742,1.25781 1.45118,1.38868 c 5.28011,5.057 18.59102,24.62808 23.89453,35.13086 l 1.48633,2.9414 -3.11524,1.72461 c -1.7125,0.94934 -4.01329,2.17512 -5.11328,2.72266 -1.09999,0.5475 -2.50759,1.15167 -3.12891,1.34375 l -1.1289,0.34961 1.2539,-2.35743 c 0.69003,-1.29736 1.25391,-2.7866 1.25391,-3.30859 0,-1.44223 -2.11085,-3.09706 -5.19336,-4.06836 -1.5244,-0.48038 -2.8892,-1.06199 -3.0332,-1.29492 -0.144,-0.2332 0.98585,-1.36592 2.51172,-2.51758 2.31106,-1.74429 2.74783,-2.31669 2.61914,-3.42969 -0.22564,-1.95174 -2.80811,-3.08491 -7.03907,-3.08593 -3.11089,-5e-4 -3.43249,-0.1013 -3.94726,-1.23047 -0.78701,-1.72679 0.42724,-3.41349 3.01172,-4.1875 1.11605,-0.33449 2.17266,-0.84008 2.34765,-1.12305 1.0879,-1.75971 -1.52254,-4.14496 -11.10742,-10.1543 -7.08321,-4.44087 -7.03963,-4.25754 -1.60547,-6.74609 z m -20.18554,9.07422 3.83203,5.5293 c 4.17248,6.01878 4.9682,7.98712 5.47265,13.52734 0.54581,5.99354 2.32409,8.59128 7.39258,10.79883 1.3982,0.60892 2.77016,3.07947 5.36719,9.66602 l 0.98047,2.48633 -2.87695,1.2832 c -1.58291,0.70643 -6.02192,2.49418 -9.86329,3.97265 -3.84136,1.47852 -7.23569,2.68946 -7.54296,2.68946 -0.30728,0 -0.94723,-1.40683 -1.42383,-3.125 -2.42978,-8.75981 -10.68385,-27.78038 -15.96094,-36.78125 C 592.8277,402.92535 592,401.33214 592,401.10938 c 0,-0.223 2.64377,-1.36309 5.875,-2.53516 3.23127,-1.17196 6.93534,-2.54635 8.23047,-3.05274 z m -190.48047,7.46485 c 0.5108,-0.008 1.33068,0.17045 2.51953,0.54297 l 2.75,0.86132 -3.125,0.0488 c -3.05488,0.048 -3.48898,-0.14816 -2.74219,-1.23633 0.0953,-0.13908 0.29103,-0.2115 0.59766,-0.21679 z m 167.26367,1.10156 c 0.0703,0.0828 1.205,2.01556 2.52148,4.29492 2.68181,4.64311 2.58589,5.32938 -0.67187,4.80859 -1.5498,-0.24793 -2.393,-0.75362 -3.35742,-2.01757 -1.05887,-1.38785 -1.62044,-1.6875 -3.16211,-1.6875 -2.35068,0 -3.07422,0.71103 -3.07422,3.01953 0,1.45001 -0.40648,2.23429 -2,3.85937 -1.64341,1.67596 -2,2.38865 -2,3.99219 0,1.39359 0.33151,2.26102 1.1582,3.03711 1.85511,1.74221 3.30567,1.39409 5.88282,-1.4082 l 2.29492,-2.49219 5.38867,0.11914 5.38867,0.11914 1.62891,3.25 c 2.06857,4.12668 6.85125,16.63132 8.16797,21.35547 l 1.00586,3.61133 -5.33204,1.72265 c -2.93321,0.94723 -8.03396,2.43021 -11.33398,3.29493 -3.29998,0.86471 -6.36728,1.67559 -6.81641,1.80273 -0.61663,0.17461 -0.8987,-0.22903 -1.15234,-1.65625 -0.18482,-1.03926 -1.67812,-7.35877 -3.31836,-14.04102 -2.65141,-10.80204 -5.7758,-20.53678 -8.90234,-27.73046 -0.76517,-1.76066 -0.87853,-2.44807 -0.42578,-2.59766 2.04823,-0.67722 18.0043,-4.7798 18.10937,-4.65625 z m -141.49219,5.40039 c 0.002,7.9e-4 5.14939,0.8948 11.44336,1.98633 6.29499,1.09171 11.54142,2.08051 11.65821,2.19726 0.11678,0.11679 -0.47491,3.98009 -1.31446,8.58594 -0.83939,4.60592 -1.58387,8.42577 -1.65625,8.48828 -0.0722,0.0627 -0.7428,-1.21746 -1.48828,-2.84375 -1.74395,-3.80481 -3.26317,-4.5405 -8.49219,-4.11523 -3.28762,0.26759 -3.82147,0.17993 -5.35546,-0.87891 -0.93699,-0.64668 -2.39108,-2.02964 -3.23047,-3.07226 -1.4264,-1.772 -1.52607,-2.17055 -1.54493,-6.1211 -0.0113,-2.3246 -0.0195,-4.22705 -0.0195,-4.22656 z m 84.44922,5.74609 1.09375,6.49805 c 0.60136,3.57385 1.04302,6.55451 0.98047,6.625 -0.0627,0.0703 -0.51453,-0.31519 -1.00391,-0.85547 -1.70521,-1.88364 -6.16639,-4.60607 -9.58203,-5.84961 -2.34463,-0.8536 -5.15089,-1.38039 -8.81836,-1.6543 -5.65716,-0.42233 -6.87109,-0.9121 -6.87109,-2.7734 0,-1.11867 0.11831,-1.1405 7.875,-1.47461 4.33119,-0.18671 9.77738,-0.37917 12.10156,-0.42774 z M 653.93945,433.625 c 0.45245,-0.004 0.56055,0.31785 0.56055,0.9668 0,0.56791 0.23357,1.46824 0.51953,2.00195 0.37417,0.69861 0.29973,2.03682 -0.26758,4.78125 -0.97659,4.72645 -1.23999,5.21949 -4.77343,8.92773 -1.57168,1.64947 -3.39883,4.0752 -4.06055,5.39063 l -1.20313,2.39258 -1.36718,-5.64258 c -0.75153,-3.10227 -1.36114,-5.79024 -1.35547,-5.97461 0.004,-0.18444 0.65113,-0.47579 1.4375,-0.64844 1.45916,-0.3205 3.52447,-2.18856 4.48047,-4.05273 0.29291,-0.57101 0.68388,-2.17079 0.86718,-3.55274 0.31333,-2.36182 0.46496,-2.57568 2.54102,-3.58398 1.37216,-0.66648 2.16865,-1.00012 2.62109,-1.00586 z M 436,456.00586 v 6.98047 l 2.13281,0.32031 c 1.17321,0.17575 2.91697,0.47996 3.875,0.67578 l 1.74219,0.35742 V 457.5 c 0,0 -1.28751,-0.22717 -2.25,-0.44336 -0.96249,-0.21619 -2.59368,-0.54165 -3.625,-0.72266 z m 228.61523,117.04883 -7.1289,0.002 -2.20117,4.38477 c -4.99975,9.95179 -12.56337,21.87346 -19.625,30.93359 -1.86607,2.39407 -3.57026,4.10811 -4.0625,4.08789 -0.46632,-0.0189 -3.95421,-1.24146 -7.75196,-2.7168 -3.7977,-1.47533 -7.10899,-2.75367 -7.35742,-2.83984 -0.24831,-0.0862 1.14822,-2.6303 3.10352,-5.6543 5.37936,-8.31961 12.03181,-19.50008 14.34961,-24.11718 l 2.04492,-4.07422 -7.47852,0.002 -0.56054,1.07422 c -2.95507,5.65432 -9.91399,17.40623 -13.61524,22.99219 -2.70081,4.07607 -4.86531,6.85256 -5.31836,6.82421 -0.96877,-0.0605 -15.49248,-4.76216 -15.86719,-5.13671 -0.15344,-0.15345 0.62264,-1.80511 1.72657,-3.66993 3.13655,-5.29818 7.37334,-14.00778 8.88281,-18.26171 l 1.35547,-3.81641 -62.73828,0.0117 c 2.53292,0.004 5.52008,0.019 9.02343,0.0488 l 14.54883,0.13281 -3.03906,9.12109 c -2.32244,6.97051 -3.23001,9.10723 -3.84766,9.06055 -2.35196,-0.17802 -24.83615,-3.075 -24.99414,-3.2207 -0.10242,-0.0941 0.0964,-1.65917 0.43946,-3.47852 0.44454,-2.35525 0.77823,-3.15337 1.16015,-2.77148 0.29518,0.29518 1.26143,0.53515 2.14649,0.53515 2.6558,0 3.18945,0.41998 3.18945,2.5 0,2.90926 2.43322,3.43738 5.05273,1.09766 1.29026,-1.15249 1.56231,-1.76334 1.53907,-3.45313 -0.034,-2.51013 -0.82072,-3.87536 -3.02539,-5.24804 -1.76504,-1.09894 -5.43046,-1.46683 -7.41407,-0.74414 -1.03513,0.37719 -1.08135,0.29329 -0.80468,-1.49805 0.16138,-1.0447 0.34167,-1.96033 0.39843,-2.0332 0.0189,-0.0265 1.12298,-0.0401 2.63086,-0.0469 l -10.59765,0.002 c 1.16084,0.10697 1.13456,0.37492 0.97461,1.05274 -0.14589,0.61852 -0.82521,3.9185 -1.51172,7.33398 -0.68652,3.41552 -1.30439,6.23535 -1.3711,6.26563 -0.0669,0.0302 -5.23984,-0.2672 -11.49609,-0.66016 L 504,586.36133 v -6.67578 -6.59571 h -6.5 v 6.41993 6.49804 h -7 c -3.85002,0 -7,-0.16164 -7,-0.35742 0,-0.19578 0.95585,-1.32674 2.12305,-2.51562 2.08803,-2.12686 2.1249,-2.2262 2.30273,-6.14258 l 0.17578,-3.90039 -9.48242,0.002 -0.23633,2.45898 c -0.15042,1.56507 -0.60672,2.90372 -1.18945,3.48633 -0.5204,0.52018 -1.64467,1.08529 -2.49805,1.25586 -1.51094,0.30199 -1.56047,0.25438 -1.88672,-1.86133 -0.18406,-1.19489 -0.46613,-2.90339 -0.62695,-3.79687 l -0.27734,-1.54102 -6.4961,0.002 0.20313,2.28906 c 0.11679,1.30586 0.17501,2.43209 0.1289,2.5039 -0.11716,0.18218 -3.69807,-2.26759 -5.40234,-3.69531 l -1.31055,-1.09765 -34.22461,0.008 c 2.1134,0.11754 2.27326,0.38665 2.46485,1.03125 0.18406,0.61852 0.95896,1.9213 1.72265,2.89453 1.30439,1.66227 6.4349,14.24689 5.97266,14.65039 -0.11716,0.10243 -4.55133,1.19795 -9.85351,2.43359 l -9.64063,2.2461 -1.69727,-3.05274 c -2.01505,-3.62241 -5.31057,-11.02624 -7.31054,-16.42382 l -1.39844,-3.77539 -19.32422,0.004 1.11719,0.0137 11.3125,0.13477 0.47461,1.5 c 1.19694,3.77499 4.97238,13.01262 7.32812,17.93164 1.42594,2.97755 2.52165,5.47985 2.43555,5.56055 -0.0862,0.0805 -3.74147,1.29441 -8.125,2.69726 -4.3835,1.40281 -8.14199,2.55078 -8.35156,2.55078 -1.48131,0 -10.78196,-17.09844 -15.69922,-28.86328 l -0.63672,-1.52344 -7.16406,0.002 1.59765,4.01758 c 2.16262,5.43942 5.68744,12.526 10.52735,21.16211 2.17005,3.87212 3.94531,7.26153 3.94531,7.5332 0,0.27175 -3.49551,1.88396 -7.76758,3.58203 -4.27209,1.69803 -7.94694,3.08594 -8.16797,3.08594 -0.62656,0 -6.49619,-7.60459 -11.18554,-14.49414 C 351.91622,589.97812 343.5,575.13396 343.5,573.52539 c 0,-0.18746 1.43244,-0.31899 3.98633,-0.4043 l -11.73242,0.004 2.95507,6.05273 c 9.1507,18.7414 20.19207,34.27337 34.5254,48.56641 29.10032,29.01865 68.39637,47.91562 107.52929,51.70898 3.0169,0.29254 6.38588,0.62024 7.48633,0.72852 4.37299,0.4297 25.90763,-0.20033 32.5,-0.95117 18.12465,-2.06381 36.58734,-7.05703 52.85352,-14.29297 26.57159,-11.82025 52.276,-32.3792 70.25,-56.1875 6.89949,-9.13905 15.30217,-23.17586 19.14062,-31.97656 z m -144.98046,0.0312 -8.13477,0.002 v 2.16406 c 0,4.80208 2.44222,7.94629 5.19727,6.69141 1.5386,-0.7008 2.25438,-2.32708 2.63671,-5.98438 z m 70.70507,0.0117 c 4.4902,-0.004 7.66016,0.0633 7.66016,0.18164 0,1.05808 -4.14818,10.00871 -7.05664,15.22461 -1.91618,3.43638 -3.87016,6.72895 -4.33984,7.3164 l -0.85352,1.06836 -9.5,-2.10742 c -7.07728,-1.57051 -9.47649,-2.28987 -9.41016,-2.81836 0.0488,-0.39008 1.44559,-4.75673 3.10352,-9.70508 l 3.01367,-8.99804 12.52149,-0.13086 c 1.72168,-0.0189 3.36459,-0.0275 4.86132,-0.0312 z m -143.76172,6.49804 c 1.4566,0.0265 2.16416,0.27099 3.30274,0.85157 1.80113,0.91857 2.09375,1.32337 2.57617,3.57226 1.05184,4.90288 1.23993,4.68054 -4.83203,5.64258 -2.95623,0.46843 -5.48743,0.84753 -5.625,0.84375 -0.13757,-0.004 -1.0104,-2.08755 -1.94141,-4.62891 -0.93101,-2.54124 -1.79039,-4.87478 -1.9082,-5.1875 -0.14589,-0.38721 1.36669,-0.68231 4.74219,-0.92383 1.66707,-0.11943 2.8116,-0.18466 3.68554,-0.16992 z M 504.5,592.875 l 3.375,0.30078 c 1.85628,0.16592 6.07502,0.432 9.375,0.5918 7.57712,0.36737 8.37324,0.52794 8.07617,1.62695 -0.12775,0.47195 -0.37,1.47785 -0.53906,2.23633 -0.29178,1.31085 -0.3651,1.3429 -1.45508,0.62891 -0.63076,-0.41311 -2.17416,-0.89234 -3.42969,-1.06446 -2.73471,-0.37493 -4.14722,0.69005 -4.67968,3.52735 -0.23585,1.25779 -0.59695,1.77734 -1.23633,1.77734 -0.4969,0 -1.20408,0.0993 -1.57031,0.21875 -0.36624,0.11943 -1.90353,-0.11792 -3.41602,-0.52539 -1.51245,-0.40751 -3.14371,-0.63637 -3.625,-0.51172 -0.78542,0.20372 -0.875,-0.23702 -0.875,-4.29102 z m -28.32812,1.13086 c 0.49413,0.004 2.04895,1.04573 4.57617,3.07031 2.66547,2.13517 3.25195,2.8667 3.25195,4.0625 0,2.17334 1.4412,4.80475 3.10352,5.66406 2.76914,1.43154 5.04754,0.0771 8.83398,-5.25195 l 1.5625,-2.19922 v 9.75782 c 0,5.36757 0.12913,10.40692 0.28711,11.19726 0.22979,1.15121 -0.0435,1.80572 -1.375,3.28711 -1.64338,1.8285 -1.71507,1.85136 -6.50195,2.17969 l -4.8418,0.33398 -2.50781,-7.93164 C 479.33374,607.97465 476,595.77665 476,594.16797 c 0,-0.11036 0.0577,-0.16324 0.17188,-0.16211 z m -9.55665,0.008 c 2.17667,-0.008 2.38994,0.10015 2.66993,1.36524 0.84506,3.81751 4.50618,16.95834 6.47656,23.24804 1.22638,3.91457 2.23248,7.35042 2.23437,7.63672 0.002,0.28649 -2.75232,0.92291 -6.12109,1.41406 -3.36877,0.49112 -6.6875,0.99383 -7.375,1.11719 -0.6875,0.12359 -1.5169,0.0454 -1.84375,-0.17383 -1.0498,-0.70473 -9.94618,-15.83696 -13.91211,-23.66406 -2.75588,-5.439 -3.67049,-7.6895 -3.23437,-7.95898 1.13631,-0.70201 17.15986,-2.96737 21.10546,-2.98438 z m 66.22266,1.27735 c 2.94883,-0.15572 23.35122,2.23429 23.99219,2.875 0.23622,0.23622 -3.1192,8.16769 -4.08203,9.64843 -0.38068,0.58549 -2.19168,1.7672 -4.02539,2.625 -3.79038,1.77313 -4.69127,1.84315 -7.42383,0.57032 -1.79286,-0.83509 -2.15598,-0.85154 -4.43945,-0.17383 -2.98353,0.88573 -4.5208,0.57817 -6.38282,-1.28321 l -1.39648,-1.39843 1.5293,-6.19922 c 0.84166,-3.41046 1.68941,-6.37977 1.88281,-6.59766 0.0302,-0.034 0.14879,-0.0558 0.3457,-0.0664 z m -95.08984,2.8457 4.79101,9.30469 c 2.636,5.11778 6.62113,12.33297 8.85547,16.0332 2.23438,3.70019 3.98921,6.79989 3.90039,6.88867 -0.0888,0.0888 -2.61051,0.82343 -5.60351,1.63281 -2.99301,0.80935 -5.77891,1.46661 -6.19141,1.46094 -1.94158,-0.0302 -17.85384,-19.75255 -23.43945,-29.05469 l -1.10938,-1.84961 2.15039,-0.58398 c 1.18235,-0.32164 5.40992,-1.31581 9.39649,-2.20898 z m 128.15039,1.41992 c 1.45236,0.0453 3.66229,0.58961 7.35156,1.41211 9.90403,2.20789 9.34759,1.46596 5.38086,7.16016 l -3.38086,4.84961 -4.37891,1.75976 c -4.14924,1.66685 -6.79511,2.16759 -7.53711,1.42578 -0.1833,-0.1833 -0.33398,-0.9814 -0.33398,-1.77344 0,-1.35564 -2.00179,-3.89062 -3.07227,-3.89062 -0.73194,0 -0.49195,-0.86249 1.67383,-6.00586 1.55936,-3.70322 1.8762,-5.0129 4.29688,-4.9375 z m -153.68555,5.2207 c 0.14476,-0.004 0.23778,0.0113 0.26953,0.0449 0.21392,0.23584 2.25478,3.23939 4.53516,6.67578 5.62949,8.48334 10.05153,14.37146 14.88672,19.8164 l 4.05859,4.57032 -5.49805,2.05273 c -3.0246,1.12883 -5.6665,2.05273 -5.87109,2.05273 -0.73754,0 -11.94087,-10.41469 -16.28906,-15.14257 -5.22236,-5.67829 -12.27785,-14.36661 -12.29297,-15.13672 -0.0113,-0.66112 14.02806,-4.87044 16.20117,-4.9336 z m 177.33399,0.38282 c 0.21127,-0.0113 0.43561,0.0227 0.70312,0.0703 2.67368,0.49077 14.75,4.42784 14.75,4.80859 0,0.20334 -1.02473,1.62682 -2.27734,3.16406 -1.94589,2.38806 -2.52216,2.79493 -3.95899,2.79493 -0.92492,0 -1.99532,0.12055 -2.3789,0.26757 -0.38363,0.14703 -1.09114,-0.16781 -1.57227,-0.69921 -0.48113,-0.53148 -1.59224,-1.07397 -2.46875,-1.20508 -0.87651,-0.13115 -2.31139,-0.5347 -3.18945,-0.89844 -1.43445,-0.59422 -1.85242,-0.54173 -4.12305,0.52149 -1.38992,0.65079 -2.62893,1.08193 -2.75195,0.95898 -0.12284,-0.12284 1.28406,-2.41996 3.125,-5.10547 2.58682,-3.77352 3.22774,-4.62988 4.14258,-4.67773 z m -200.91993,6.86914 c 0.34281,0.0189 2.49277,2.4772 4.77735,5.46484 5.39505,7.05524 13.72989,16.18399 19.50781,21.36524 l 4.5918,4.11718 -4.49219,2.25586 c -2.47049,1.24033 -4.55272,2.24975 -4.62695,2.24219 -0.46693,-0.0438 -12.40551,-8.70778 -16.13477,-11.70899 -7.85148,-6.31872 -19.38444,-17.40252 -18.6875,-17.95898 0.55198,-0.44077 14.53687,-5.80418 15.06445,-5.77734 z m 223.42969,0.55273 c 0.24454,-0.0918 3.08931,0.85495 6.32031,2.10352 3.23097,1.2486 6.5031,2.50217 7.27344,2.78711 l 1.40234,0.51953 -1.65234,2.07422 c -2.99921,3.77026 -14.20852,13.59889 -22.30469,19.55664 -5.17047,3.80481 -8.38755,5.85082 -9.1582,5.82422 -0.65329,-0.0227 -2.8538,-0.82071 -4.89062,-1.77149 l -3.70313,-1.72851 1.67578,-1.72852 c 1.55875,-1.60758 1.89605,-1.72852 4.79102,-1.72852 2.63437,0 3.35439,-0.2037 4.67968,-1.31835 1.78307,-1.49987 4.46076,-6.52453 5.98633,-11.23243 0.7906,-2.43953 1.99361,-4.37728 5.08594,-8.19336 2.22769,-2.74911 4.24979,-5.07225 4.49414,-5.16406 z m -117.95703,19.50391 c 3.0288,-0.0113 3.14856,1.27673 3.40039,7.64648 0.1372,3.47823 0.17992,8.78201 0.0937,11.78711 -0.0858,3.00514 -0.33677,5.46484 -0.55859,5.46485 -0.3848,0 -9.70203,-24.00114 -9.41993,-24.26563 0.0748,-0.0699 1.82228,-0.27777 3.88477,-0.46289 1.0461,-0.0941 1.90066,-0.16728 2.59961,-0.16992 z m -13.74414,1.30273 c 0.10696,0.003 0.172,0.0123 0.1875,0.0312 0.74215,0.82092 9.00861,24.07848 8.72265,24.54102 -0.17801,0.28838 -0.85633,0.52344 -1.50781,0.52344 -0.85062,0 -2.31518,-1.23242 -5.1914,-4.37305 -3.8939,-4.25189 -15.61852,-18.73313 -15.36914,-18.98242 0.3307,-0.33071 11.55163,-1.7847 13.1582,-1.73829 z m -20.49414,3.42774 c 0.0911,0.003 0.14831,0.0164 0.16797,0.0391 0.19578,0.21354 2.38967,3.08779 4.87304,6.38672 2.48338,3.29888 6.6629,8.44882 9.28907,11.44531 2.62616,2.99656 4.65609,5.6394 4.51171,5.87305 -1.02372,1.65588 -6.72187,-1.74398 -17.45312,-10.41407 -5.11,-4.1286 -12.3595,-10.70897 -12.0918,-10.97656 0.48889,-0.48869 9.33902,-2.39801 10.70313,-2.35156 z m -18.69336,4.67187 c 0.20145,0 2.25158,1.77676 4.55664,3.94727 4.98992,4.69863 13.72886,11.88799 19.26953,15.85351 3.14139,2.24833 3.87354,2.99816 3.4375,3.52344 -0.30463,0.36699 -0.69465,0.65366 -0.86719,0.63477 -1.41199,-0.14967 -12.4867,-5.52162 -19.81445,-9.61133 C 442.5776,652.94936 431,645.46521 431,645.008 c 0,-0.2846 9.34634,-3.51953 10.16797,-3.51953 z m 64.06641,1.1211 c 0.35829,0.0571 0.8809,0.89563 1.64062,2.38476 1.47602,2.89334 1.42618,4.58976 -0.24414,8.35156 -0.75961,1.71077 -1.54961,3.11744 -1.75586,3.125 -0.20636,0.008 -0.375,-3.15571 -0.375,-7.02734 0,-4.8548 0.13721,-6.92904 0.73438,-6.83398 z m 76.51562,5.02929 2.74609,1.2168 c 2.60988,1.15638 2.69662,1.25274 1.75,1.94726 -3.3434,2.45322 -20.10329,10.18888 -28.47461,13.14258 -2.39338,0.84454 -4.5575,1.53516 -4.81054,1.53516 -1.61224,0 0.90789,-1.62716 11.53906,-7.45508 0.96253,-0.52766 3.27025,-1.18411 5.12891,-1.45703 2.91114,-0.42743 3.86798,-0.85717 6.89648,-3.10156 1.93357,-1.43294 3.89882,-3.33061 4.36914,-4.2168 z m -158.61328,0.63086 c 1.35776,0.068 2.80121,1.2092 6.7168,4.08399 5.39588,3.96162 13.08636,8.6465 20.85351,12.70507 3.04929,1.59334 5.20547,2.89246 4.79297,2.88868 -1.25495,-0.0151 -13.35217,-4.17465 -20.25,-6.96485 -7.11368,-2.87747 -19.25,-8.84008 -19.25,-9.45898 0,-0.21392 1.59533,-1.12516 3.54492,-2.02344 1.55373,-0.71596 2.45189,-1.18244 3.32031,-1.22852 0.0903,-0.004 0.18116,-0.004 0.27149,-0.002 z m 94.45508,4.47852 c 0.57437,-0.008 1.12296,0.0845 1.58984,0.29687 1.63389,0.74419 1.92087,1.56937 1.00195,2.88086 -0.42293,0.60359 -1.2097,1.02012 -1.83593,0.96875 -0.60318,-0.0495 -2.16518,-0.17416 -3.47071,-0.27734 l -2.37304,-0.1875 0.71484,-1.38477 c 0.69351,-1.34071 2.64988,-2.27265 4.37305,-2.29687 z m -6.63086,10.95703 c 3.63016,-0.0113 5.38546,0.0303 4.04883,0.11914 -3.44765,0.2245 -4.84397,1.00035 -5.10547,2.83398 -0.10243,0.71796 -0.72149,1.25419 -1.86914,1.625 -1.84275,0.59543 -4.53516,3.23964 -4.53516,4.45313 0,0.62687 -1.22054,0.73264 -7.875,0.68555 -7.46963,-0.0529 -16.88588,-0.82189 -22.375,-1.83008 l -2.5,-0.46094 3.25,-1.55078 c 1.78749,-0.8538 5.16244,-2.10225 7.5,-2.77149 8.24202,-2.3599 13.01983,-2.93863 25.25,-3.07031 1.58128,-0.0189 3.00088,-0.0256 4.21094,-0.0332 z m 20.56054,1.11914 6.04102,1.67383 c 4.51589,1.25049 5.78093,1.76825 5.01172,2.05273 -1.89332,0.70012 -13.75814,2.9104 -19.72461,3.67383 -3.24533,0.41518 -6.60868,0.75391 -7.47461,0.75391 -2.67575,0 -0.89048,-0.85466 3.625,-1.73438 6.35286,-1.23772 7.47169,-1.69947 10.10742,-4.16406 z"
         style="opacity:1;fill:#fdb71a;fill-opacity:1;stroke-width:0.49991748"
         inkscape:connector-curvature="0" />
      <path
         transform="matrix(0.26458333,0,0,0.26458333,0,32.41665)"
         id="path865"
         d="m 758.82617,414.06445 c -4.55165,0 -8.12359,2.39207 -10.07617,6.74805 -1.77067,3.95029 -2.25,7.24393 -2.25,15.45117 0,8.58089 0.35984,7.54242 -4.6582,13.42578 l -2.46094,2.88477 -2.06641,-1.67774 c -4.10834,-3.33913 -4.47202,-3.46866 -10.96679,-3.875 -4.18409,-0.26192 -7.96306,-0.86886 -12.04102,-1.93359 -6.91774,-1.80608 -14.50329,-2.43943 -19.05664,-1.5918 -6.23528,1.16073 -11.80619,4.99512 -17.30469,11.91211 -1.45001,1.82404 -2.73429,3.18909 -3.04883,3.25977 l -0.008,0.13867 c -5.91209,-3.42278 -7.84908,-2.06636 -10.58398,-1.66992 l -6.61133,-1.12305 c -11.56577,0.21543 -13.80099,8.20624 -17.61328,14.88281 -0.0529,0.88135 -0.22452,1.77142 -0.52344,3.09766 -0.43971,1.95186 -1.02558,3.54272 -1.30273,3.53516 -0.27704,-0.008 -2.23462,-0.7856 -4.35157,-1.72852 -4.79066,-2.13384 -8.72014,-3.16889 -13.60937,-3.58203 -1.25337,-0.10583 -2.0723,-0.18399 -2.63477,-0.28906 -3.30992,0.38661 -6.03015,0.58183 -8.38476,1.33203 -0.29292,0.25852 -0.6982,0.53976 -1.29102,0.92773 -2.30124,1.50618 -3.04381,1.58973 -5.23242,0.58789 -0.825,-0.37795 -2.46601,-0.69771 -3.64844,-0.71093 C 596.88631,474.04373 594,472.89376 594,472.0332 c 0,-0.26797 -0.44997,-0.93847 -1,-1.48828 -0.86574,-0.86551 -1.66713,-0.99804 -5.9668,-0.99804 -2.31511,0 -3.62573,0.0443 -4.39453,-0.26563 -3.09702,1.11432 -6.02762,2.34909 -8.71679,3.65234 -0.0389,0.0227 -0.0529,0.0391 -0.0938,0.0645 -0.93218,0.57592 -1.95007,1.04687 -2.13281,1.04687 -0.33108,-3.17265 -0.12019,-5.89725 0,-9.01562 V 452.1602 c -0.001,-0.25928 0,-0.39846 0,-0.69141 0,-0.0782 -4e-5,-0.12016 0,-0.19727 v -15.71484 h -3.16992 c -0.008,8e-5 -0.012,0 -0.0195,0 -0.002,0 -0.004,8e-5 -0.008,0 h -15.86133 -14.63867 -20 -14 -7.35743 -8.02539 -18.6289 L 443.75,435.33398 v 0.22266 21.94336 6.83984 91.17774 H 436 v -92.53125 -6.98047 -20.44922 -0.28906 l -24.73242,-0.21094 h -25.00586 c -2.50662,0.0404 -5.08514,0.0423 -7.4043,0 H 345.4707 c -0.0378,8e-5 -0.0577,0.002 -0.0957,0.002 h -4.79492 v -0.002 H 333.25391 290 v 120.46094 h -7.5 V 435.05664 h -140 V 555.51758 H 125 v 17.65039 l 210.49805,-0.56836 0.25586,0.52539 11.73242,-0.004 c 2.0586,-0.0688 4.8006,-0.10937 8.45703,-0.10937 h 12.44531 l 0.041,0.10547 7.16406,-0.002 -0.0508,-0.12304 10.19531,0.12109 19.32422,-0.004 -0.0391,-0.0977 h 10.95312 c 4.65041,0 7.2584,0.008 8.82422,0.0937 l 34.22461,-0.008 -0.10351,-0.0859 h 3.23828 3.23828 l 0.008,0.0859 6.49609,-0.002 -0.0137,-0.084 h 3.36914 3.36914 l -0.008,0.082 9.48242,-0.002 0.004,-0.0801 h 4.69726 4.69727 v 0.0781 h 6.5 v -0.0781 h 3.75 3.75 v 0.0762 l 8.13477,-0.002 0.006,-0.0723 h 5.18946 c 1.99495,0 3.20753,0.002 3.94726,0.0703 l 10.59766,-0.002 c 0.56194,-0.003 0.99386,-0.006 1.71484,-0.006 0.33033,0 0.92159,0.002 1.28125,0.006 l 62.73829,-0.01 0.0195,-0.0566 h 11.70117 11.70312 l -0.0254,0.0508 7.47852,-0.002 0.0254,-0.0488 h 10.75 10.74805 l -0.0234,0.0449 7.1289,-0.002 0.0195,-0.043 H 769.81641 875 v -8.74804 -8.7461 h -15.42188 -15.42187 l -0.57813,-4.07617 c -0.31672,-2.24175 -1.11593,-5.25355 -1.77539,-6.69336 -1.99513,-4.35677 -6.15565,-10.44112 -8.93164,-13.05859 -4.63185,-4.36724 -15.53147,-12.77963 -18.11523,-13.98242 -5.29519,-2.46505 -12.49249,-1.0095 -15.53516,3.14258 -0.77711,1.06046 -1.7501,2.20913 -2.16211,2.55273 -1.33655,1.11481 -3.68403,0.69511 -5.68359,-1.01758 l -1.875,-1.60547 1.97852,-3.21484 c 1.08759,-1.7678 2.21283,-4.30992 2.5,-5.64844 0.65983,-3.07306 0.66563,-22.49987 0.008,-27.04101 -0.27137,-1.87661 -1.07297,-4.63612 -1.78125,-6.13282 -1.53498,-3.24347 -7.82081,-10.05381 -12.20117,-13.21875 l -3.08399,-2.22656 0.28516,-2.25 c 1.48154,-11.6691 1.65214,-19.63289 0.52539,-24.49219 -1.21988,-5.2603 -5.28764,-12.89448 -9.01758,-16.92187 -3.70787,-4.00282 -6.48817,-5.57031 -9.88672,-5.57031 z m -1.07422,7.20703 c 1.64678,0.0809 3.86274,1.5237 6.33399,4.22266 6.51163,7.11148 8.14916,16.22208 5.94336,33.04688 -0.52199,3.98131 -0.79735,7.50149 -0.61328,7.82226 0.18406,0.32088 2.0417,1.72252 4.1289,3.11524 4.36282,2.91114 10.68253,9.31572 11.83203,11.99023 0.6302,1.46612 0.83095,4.63244 1.01758,16.1543 0.2691,16.58445 0.28875,16.49412 -4.76172,21.94726 -1.68737,1.82192 -2.63149,3.2409 -2.45703,3.69531 0.15572,0.40578 1.29997,0.99427 2.54102,1.30665 1.46309,0.3685 3.23411,1.42298 5.03906,3.00195 2.98741,2.61343 6.5046,3.99021 10.32812,4.04297 2.2678,0.0302 2.54617,-0.19458 7.06641,-5.75196 1.68556,-2.07205 2.12411,-2.33789 3.89063,-2.33789 3.74059,0 5.35885,1.00945 15.15429,9.45704 7.54806,6.50936 11.96705,12.55675 13.55664,18.55078 0.90573,3.41522 0.31371,4.48242 -2.48828,4.48242 -2.76276,0 -9.94988,-2.73758 -15.26367,-5.81446 -4.99706,-2.89349 -7.76694,-3.36067 -18.08203,-3.04882 -5.05085,0.15269 -8.52158,0.0605 -8.81445,-0.23242 -0.31068,-0.31068 -1.29677,-0.20713 -2.76368,0.29101 -1.62232,0.5506 -3.22182,0.68776 -5.54687,0.4707 -3.75266,-0.35036 -4.79297,0.16668 -4.79297,2.38477 0,1.56903 -1.93629,2.94922 -4.13477,2.94922 -2.32769,0 -6.35559,1.55556 -8.46679,3.26758 -1.18084,0.95762 -3.61095,2.46448 -5.39844,3.34961 -4.47621,2.2165 -9.10695,2.46626 -12.83398,0.69335 -2.19062,-1.04205 -3.3573,-1.23491 -7.64454,-1.26953 -7.51313,-0.0608 -9.86722,-1.48177 -11.25,-6.78906 -0.67517,-2.59098 -0.68407,-3.31881 -0.0762,-5.73242 0.78641,-3.1214 0.79721,-18.09857 0.0137,-18.35547 -0.25285,-0.0828 -1.80907,0.3966 -3.45898,1.06641 -2.63856,1.071 -3.01846,1.39924 -3.1543,2.71875 -0.085,0.82511 0.21471,2.58083 0.66602,3.90234 0.93978,2.75082 1.08733,9.99983 0.26562,13.05078 -0.93955,3.48805 -2.7611,4.43529 -13.35156,6.95703 L 702.25,557.76562 H 688 c -10.46022,5e-4 -16.54928,-0.24564 -22.89258,-0.92773 -9.93407,-1.06794 -12.63011,-0.87345 -13.85547,0.99609 -1.44918,2.21095 -6.44053,3.84639 -8.88086,2.91016 -0.56598,-0.21732 -0.60385,-0.60997 -0.1875,-1.93945 l 0.52149,-1.66602 1.34961,0.99805 c 1.65853,1.22581 2.30551,0.8807 2.74609,-1.4668 0.69902,-3.72518 -2.15571,-6.42038 -8.3457,-7.8789 -6.62937,-1.56216 -9.3097,-0.75605 -11.23828,3.38476 -0.66388,1.42537 -1.20722,2.9702 -1.21289,3.43164 -0.008,1.37197 1.44477,2.41016 3.37304,2.41016 2.03377,0 6.27507,1.84527 5.84375,2.54297 -0.15458,0.2502 -1.68496,0.45507 -3.40234,0.45507 -2.87006,0 -3.25074,-0.13266 -4.70703,-1.63476 -0.87137,-0.89873 -1.89961,-2.52869 -2.28516,-3.62305 l -0.70117,-1.99023 -2.6875,0.12304 c -3.03398,0.13796 -7.49079,-0.98155 -8.43359,-2.11718 -1.11153,-1.33886 -2.25421,-0.81278 -4.0586,1.86914 -1.30238,1.93587 -2.50228,3.00196 -4.57422,4.0625 l -2.80859,1.4375 -15.26562,0.17773 -15.26368,0.17578 -1.36523,-1.17187 c -1.16742,-1.00384 -1.36682,-1.56812 -1.39063,-3.91211 -0.0151,-1.50614 0.28271,-3.32023 0.66407,-4.0332 0.88214,-1.65045 9.81465,-7.62432 12.08789,-8.08399 3.58915,-0.72574 3.59045,-0.72683 3.23828,-2.60351 -0.76785,-4.09164 2.16344,-10.66407 4.75586,-10.66407 0.50615,0 1.53875,-0.53336 2.29492,-1.18359 1.18942,-1.02278 1.40502,-1.63436 1.58984,-4.53711 0.12133,-1.90511 -0.006,-3.57359 -0.29297,-3.86133 -0.34242,-0.34242 -1.62709,-0.23641 -3.96484,0.33203 -5.06011,1.22948 -6.85724,0.62106 -11.55273,-3.91796 -2.03535,-1.96751 -5.00894,-5.20025 -6.60938,-7.1836 -2.53292,-3.13878 -2.95608,-3.97494 -3.26562,-6.45117 -0.52751,-4.22094 0.45948,-13.79674 1.6289,-15.79883 1.10506,-1.89188 8.8475,-7.47055 12.15039,-8.75586 1.2375,-0.48155 3.56247,-0.875 5.16797,-0.875 2.36364,0 3.08202,0.19956 3.77149,1.05078 1.22343,1.5103 2.32525,1.98411 6.68554,2.87891 4.18999,0.85988 6.1614,1.85806 6.63867,3.36133 0.46719,1.47137 2.15691,1.14104 4.36329,-0.85156 3.47229,-3.13595 5.77705,-3.84794 11.58203,-3.58594 4.36354,0.19691 5.90972,0.53168 11.53906,2.50781 3.57498,1.25492 7.22347,2.57562 8.10742,2.93555 3.53685,1.44015 5.54685,-0.84106 6.87305,-7.79883 1.37828,-7.23096 5.03971,-12.79372 8.88281,-13.49414 0.89964,-0.16403 4.84568,-0.10499 8.76758,0.13086 l 7.13086,0.42969 3.00586,2.11914 3.00781,2.12109 2.61133,-2.8457 c 1.43671,-1.56469 3.24649,-3.93231 4.02148,-5.26172 1.88327,-3.23074 5.22466,-6.08151 9.74414,-8.31446 3.44648,-1.70279 4.0436,-1.83712 8.03516,-1.80859 3.03693,0.0227 6.27136,0.5008 10.93945,1.62109 3.74801,0.89953 9.09058,1.77473 12.29297,2.01368 6.3162,0.47127 7.16003,0.77868 10.2168,3.7207 1.51555,1.45875 2.22598,2.60659 2.43945,3.94141 0.32088,2.00606 1.27604,2.43834 2.77735,1.25781 1.05913,-0.83286 12.24687,-13.66742 13.11132,-15.04102 0.42943,-0.68235 0.78255,-3.37694 0.96094,-7.32617 0.40921,-9.05805 1.18352,-16.79711 1.79297,-17.93555 0.51088,-0.95425 1.29313,-1.39614 2.28125,-1.34765 z M 756.30859,432.5 C 755.09453,432.59373 755,434.33812 755,440.34961 v 7.32031 l -5.56836,5.79297 c -7.77248,8.08237 -8.37383,9.26702 -5.49609,10.83008 1.54684,0.84023 6.35834,0.99232 6.83789,0.2168 0.18255,-0.29519 -0.14511,-1.04332 -0.72852,-1.66407 l -1.06054,-1.1289 1.23828,-0.56446 c 0.76127,-0.34696 1.4042,-1.19725 1.66601,-2.20703 0.26684,-1.02943 0.78589,-1.70923 1.39258,-1.82031 1.56495,-0.28687 2.71875,-1.6232 2.71875,-3.15039 0,-1.35099 0.1115,-1.42383 2.23828,-1.42383 3.57619,0 3.87628,-0.83829 3.23047,-9.03125 -0.587,-7.4471 -1.40898,-9.92795 -3.53516,-10.66015 -0.69161,-0.23812 -1.22028,-0.39037 -1.625,-0.35938 z M 168.25,448.05273 h 30.77344 c 10.7497,17.94501 31.77342,55.03125 31.77344,55.03125 H 236.5 v -55.03125 h 23.50586 v 93.96875 h -27.85938 c 0,0 -7.85606,-11.54086 -16.7207,-25.5625 -15.95581,-25.23809 -17.18302,-26.91992 -19.65039,-26.91992 -0.68994,0 -0.77539,2.87602 -0.77539,26.24219 v 26.24023 h -27.00391 z m 137.20117,0 h 29.95117 l 1.98047,48.92383 h 5.07617 L 355.25,448.05273 h 17.16211 L 383.5,496.97656 h 6.11328 l 4.93164,-48.92383 h 30.54883 l -11.62891,93.96875 h -0.44336 -35.04296 -0.49219 l -13.25977,-49.85742 h -4.10351 l -12.66016,49.85742 h -32.94336 z m 183.88281,0 h 29.89063 l 32.05273,93.96875 h -30.47851 l -3.03516,-12.48632 h -25.36914 l -2.56641,12.48632 H 459 Z m 210.51368,5.14063 c -2.60361,-0.0227 -4.27668,0.52958 -6.32227,1.64258 -4.7314,2.57431 -9.51777,7.99012 -9.52344,10.77344 -0.002,1.06163 -0.2918,1.37095 -1.52343,1.61718 -1.13239,0.2264 -1.70851,0.74934 -2.25,2.04492 -0.40029,0.95777 -0.72852,2.23809 -0.72852,2.84375 0,1.36109 1.35626,2.92969 2.5332,2.92969 0.48295,0 1.46358,0.72957 2.17969,1.62305 0.71611,0.89344 1.51711,1.89012 1.7793,2.21289 0.2623,0.32277 1.68913,0.73675 3.17187,0.92187 4.61942,0.57699 7.33594,-1.82647 7.33594,-6.49218 0,-1.39389 0.19844,-1.76563 0.93945,-1.76563 0.51629,0 1.24758,0.37307 1.625,0.82813 1.60747,1.93765 6.25163,2.76495 9.2793,1.65429 0.77416,-0.28422 2.77341,-1.97019 4.44336,-3.74804 1.66991,-1.77786 3.38747,-3.23243 3.81641,-3.23242 0.50717,0 0.10017,0.67953 -1.16211,1.9414 -1.90375,1.90307 -1.94179,2.01152 -1.94141,5.62305 3e-4,3.05348 0.25665,4.22415 1.5,6.85156 1.907,4.02977 2.08341,8.52981 0.44336,11.30859 -0.8917,1.51072 -1.00109,2.23579 -0.70508,4.65235 0.41174,3.36113 1.47855,5.85598 2.93945,6.8789 1.46317,1.02448 9.68902,1.01958 11.1543,-0.008 2.49525,-1.74712 1.80031,-6.30315 -1.34765,-8.83203 -2.29773,-1.84596 -2.48113,-2.72195 -0.73438,-3.51758 1.7212,-0.78398 1.57645,-2.0842 -0.5625,-5.06054 -3.37111,-4.69081 -3.92403,-7.68095 -2.38281,-12.86915 1.01491,-3.41646 3.11277,-5.4466 6.83984,-6.62109 3.40581,-1.0732 4.48667,-2.32576 3.77344,-4.37109 -0.59354,-1.70196 -4.53068,-5.45784 -5.78125,-5.51563 -4.61027,-0.21316 -8.30647,-0.76485 -16.88672,-2.51953 -5.7654,-1.17906 -9.2987,-1.77292 -11.90234,-1.79492 z m 39.60156,14.02539 c -5.26413,-0.0265 -8.94036,1.18535 -11.61914,3.72852 C 725.6804,472.9881 725,474.69322 725,478.03516 c 0,4.2404 0.9144,6.05183 4.42773,8.77929 3.64906,2.83283 5.70429,5.74447 10.85938,15.38086 3.93611,7.35784 8.13101,12.92522 10.24414,13.59571 0.69993,0.22223 1.52436,-0.1455 2.75195,-1.22266 3.55937,-3.12423 7.69485,-1.03284 7.71485,3.90039 0,0.52498 0.59851,0.63125 2.51367,0.44727 1.381,-0.13267 2.64595,-0.37642 2.81055,-0.54102 1.44665,-1.44624 0.9904,-12.14663 -0.75782,-17.76172 -1.37763,-4.42511 -3.07297,-6.61129 -7.48633,-9.66016 -4.82914,-3.33622 -7.43061,-5.67864 -8.41015,-7.57226 -1.03627,-2.00319 -0.73452,-1.86466 7.25,3.33594 7.19414,4.68582 9.3219,6.98629 10.79883,11.66992 1.04077,3.3007 2.11153,3.84093 6.95508,3.50976 4.26394,-0.29178 5.59296,-1.19341 7.57812,-5.13281 2.12621,-4.2181 2.12839,-8.71524 0.008,-12.97265 -1.7639,-3.53855 -9.22285,-11.32167 -12.91601,-13.47657 -2.33382,-1.36172 -2.61762,-1.40371 -8.83203,-1.3164 -4.59292,0.0646 -8.24976,-0.21316 -12.83985,-0.97852 -3.10533,-0.51783 -5.82597,-0.78793 -8.21875,-0.80078 z m -76.39844,3.88477 c -2.67692,0.034 -5.46326,2.4392 -7.22656,6.36718 -2.14991,4.78893 -2.22606,6.91057 -0.38672,10.83985 0.8598,1.8367 1.5625,3.51583 1.5625,3.73047 0,1.45194 -4.17788,0.62363 -6.43555,-1.2754 -1.74183,-1.4652 -3.06445,-1.17506 -3.06445,0.67188 0,1.67342 3.53861,7.62073 5.53125,9.29688 1.72808,1.45353 3.82672,2.15607 4.45703,1.49023 0.22828,-0.24113 0.49485,-0.87827 0.5918,-1.41602 0.20523,-1.13809 1.71415,-1.65296 5.06054,-1.72265 l 2.39258,-0.0488 -2.51758,2.43555 c -1.38372,1.34025 -2.51562,2.66656 -2.51562,2.94726 0,0.28082 0.82732,1.23603 1.83789,2.12305 1.73802,1.52542 1.99853,1.59883 4.8125,1.34375 2.32037,-0.21052 3.75874,-0.008 6.53711,0.91601 4.3341,1.44246 5.93939,1.4909 8.64844,0.26172 2.95204,-1.33988 3.50004,-2.51234 3.87304,-8.27929 0.17764,-2.74916 0.65013,-7.13444 1.04883,-9.7461 1.10196,-7.21954 1.03737,-7.96294 -0.73047,-8.3164 -1.30492,-0.26117 -1.49139,-0.52781 -1.625,-2.3125 -0.12207,-1.6303 -0.50522,-2.29916 -1.99609,-3.50196 -2.2326,-1.80128 -3.74904,-1.60994 -5.08008,0.64258 -0.89159,1.50879 -0.94763,1.52785 -2.16797,0.72852 -1.48014,-0.96949 -2.93014,-0.70918 -5.67578,1.02343 -1.06382,0.67136 -2.02802,1.05681 -2.14258,0.85547 -0.11452,-0.20145 -0.47855,-1.60323 -0.81054,-3.11523 -0.9298,-4.23398 -1.54066,-5.48216 -2.8418,-5.80859 -0.37455,-0.0941 -0.75431,-0.13578 -1.13672,-0.13086 z m -159.85742,4.12695 -8.68164,39.47461 h 20.20312 l -7.3789,-39.47461 z m 202.51172,0.3125 v 0.002 c -5.74492,0 -11.44317,2.80297 -14.28125,7.02735 -1.54031,2.29281 -3.06292,8.31 -3.96094,15.6582 -0.98181,8.03418 -0.32729,15.68605 2.2793,26.63867 0.17083,0.7172 0.73214,1.16205 1.63476,1.29883 2.80286,0.42459 5.42536,0.29568 7.25586,-0.35742 3.192,-1.13859 7.40486,-3.89217 10.76172,-7.03711 l 3.20703,-3.00586 0.42383,-4.18946 c 0.52891,-5.24492 -0.0707,-8.63597 -2.01758,-11.41796 l -1.48633,-2.12305 h 1.74024 c 1.66084,0 1.73828,-0.082 1.73828,-1.7832 0,-0.97992 0.47737,-2.88896 1.06055,-4.24414 1.51011,-3.50911 1.15831,-7.37401 -0.97266,-10.69141 -0.87333,-1.35965 -1.58789,-2.99448 -1.58789,-3.63477 0,-1.52904 -1.65233,-2.14062 -5.79492,-2.14062 z m -87.83399,6.08594 c -2.8569,0.0393 -4.85992,1.04423 -7.2832,3.46679 -2.94357,2.94255 -3.5871,4.3421 -2.39844,5.21094 0.44625,0.32617 0.81055,0.94276 0.81055,1.37109 0,1.51193 0.63847,2.40386 2.18555,3.05469 1.95541,0.82239 7.26003,8.05179 7.62695,10.39453 0.16743,1.06991 -0.0114,2.01079 -0.50977,2.65625 -0.72616,0.94311 -0.77199,0.86638 -0.78711,-1.33984 -0.0189,-2.73781 -1.02341,-4.03426 -2.95312,-3.81055 -0.89186,0.10356 -1.47264,-0.15609 -1.8125,-0.80859 -0.77374,-1.48524 -1.61367,-1.48669 -2.98828,-0.004 -1.49492,1.61254 -1.7025,0.68372 -0.25781,-1.15234 0.79585,-1.0114 0.87832,-1.42122 0.40429,-1.99219 -0.33108,-0.39878 -1.11151,-0.62043 -1.75195,-0.49805 -1.35583,0.25928 -1.47598,-0.0476 -0.34375,-0.875 1.15706,-0.84585 0.45712,-2.58921 -1.20508,-3.0039 -0.74638,-0.18633 -1.73055,-0.67439 -2.1875,-1.08594 -0.45694,-0.41151 -1.46382,-0.67528 -2.23828,-0.58594 -1.23587,0.14249 -1.45343,0.42803 -1.7793,2.34961 -0.66516,3.92228 -3.40234,6.43321 -3.40234,3.1211 0,-0.79106 -0.3341,-1.71641 -0.74414,-2.05664 -0.61621,-0.51122 -1.00669,-0.34054 -2.25,0.99023 -0.97659,1.04511 -1.50586,1.34405 -1.50586,0.84961 0,-1.63393 0.73038,-2.44669 3.4375,-3.81836 4.45897,-2.25933 6.5484,-5.17994 5.56055,-7.77734 -0.49977,-1.31403 -0.94414,-1.55261 -5.60547,-3.00391 -2.35707,-0.73391 -2.99375,-0.7777 -3.63672,-0.24414 -0.70484,0.58465 -0.70096,0.73467 0.043,1.55664 1.6216,1.79127 0.63941,2.28384 -5.12891,2.56836 -3.79608,0.18746 -6.46795,0.62053 -8.91992,1.44727 -3.30493,1.11428 -3.50734,1.27151 -3.65625,2.81835 -0.14589,1.51578 0.0113,1.71249 2.125,2.64649 L 579,495.08398 v 2.68946 c 0,2.31004 0.18673,2.83675 1.31836,3.72656 0.72465,0.5698 1.64795,1.03516 2.05273,1.03516 0.40483,0 1.8423,0.87969 3.19336,1.95507 l 2.45508,1.95508 -1.34961,1.0625 c -0.74302,0.58428 -1.68153,0.93633 -2.08594,0.78125 -1.09935,-0.42172 -4.02152,0.69215 -4.58789,1.75 -0.84328,1.57516 -0.55226,3.34702 0.81446,4.97071 2.92342,3.47319 6.58385,3.84159 8.89257,0.89257 l 1.2461,-1.59179 2.40039,0.73437 c 1.45856,0.44674 4.24394,0.71594 7.0957,0.68555 4.36543,-0.0465 4.59773,9.6e-4 3.32422,0.66797 -0.75315,0.39447 -3.04517,0.84316 -5.09375,0.99804 -3.17163,0.24 -3.67265,0.40028 -3.37305,1.08204 0.19352,0.44035 0.45388,2.32007 0.58008,4.17578 l 0.23047,3.37304 h 2.16406 c 2.51324,0 2.82141,0.30989 2.28907,2.29297 -0.38744,1.44344 -0.42536,1.45508 -4.10352,1.45508 -4.48059,0 -6.79649,1.18533 -8.7168,4.46094 -1.64473,2.80569 -1.57448,4.83918 0.2793,8.07812 l 1.52539,2.66602 -4.15039,0.14453 c -3.76804,0.13228 -4.15039,0.23887 -4.15039,1.14648 0,0.69355 0.38275,1.04372 1.25,1.14649 3.37693,0.40036 5,2.02875 5,5.01367 0,0.75031 0.35149,1.86346 0.7793,2.47461 0.73031,1.0422 1.14614,1.11133 6.76562,1.11133 6.94201,0 8.65652,-0.51971 10.74414,-3.25586 1.91857,-2.51456 2.26565,-7.05216 0.75977,-9.93945 -1.10037,-2.10981 -0.99668,-2.80079 0.41992,-2.80079 1.13605,0 1.74002,0.74644 2.49219,3.08204 0.32466,1.00773 1.5052,2.87279 2.625,4.14453 4.39971,4.99672 8.57901,5.49517 16.04883,1.91211 5.97732,-2.86719 11.5238,-6.70637 15.50976,-10.73633 4.16085,-4.20677 4.54908,-5.10185 3.5918,-8.25586 -0.48382,-1.59387 -0.73306,-4.80761 -0.75195,-9.63867 -0.0435,-11.53493 -0.175,-11.87372 -6.89844,-17.86914 -2.23514,-1.9931 -3.93905,-3.625 -3.78711,-3.625 0.68972,0 7.20794,4.54716 9.02929,6.29882 1.88247,1.81047 2.04895,2.19244 2.3379,5.39454 0.33184,3.67921 1.0803,5.00361 3.12109,5.51562 l 1.21484,0.30469 -1.32812,2.00586 c -1.71156,2.58546 -1.77295,5.19234 -0.22852,9.7207 l 1.19336,3.5 -1.99805,1.99805 c -1.29123,1.29142 -2.40873,3.12443 -3.15624,5.17773 -0.76623,2.10497 -1.99045,4.0912 -3.62305,5.87695 -1.42428,1.55785 -2.3516,2.99495 -2.19531,3.40235 0.14891,0.38782 1.52106,0.96418 3.04882,1.28125 2.94543,0.61122 4.28516,1.81157 4.28516,3.83789 0,1.56737 0.73207,1.8321 2.51562,0.91016 4.82639,-2.49506 12.91895,-13.10276 15.20118,-19.92579 0.63794,-1.90741 0.83582,-4.73553 0.90234,-12.95703 l 0.084,-10.51562 -1.97656,-1.22266 c -1.08703,-0.67222 -2.87657,-2.08631 -3.97656,-3.14258 -1.10003,-1.0563 -2.94697,-2.25418 -4.10547,-2.66211 -2.84731,-1.00263 -4.86519,-2.5721 -6.44726,-5.01171 -3.17847,-4.90114 -6.5956,-8.96296 -8.44727,-10.04493 -2.8117,-1.64284 -17.94284,-6.64708 -21.25,-7.02734 -0.766,-0.0881 -1.46961,-0.13054 -2.12891,-0.12109 z M 668.5,484.54102 c 0.27515,0 0.5,0.22526 0.5,0.5 0,0.27515 -0.22489,0.5 -0.5,0.5 -0.27515,0 -0.5,-0.22489 -0.5,-0.5 0,-0.27515 0.22485,-0.5 0.5,-0.5 z m 3.50586,3.43164 -1.05274,1.7832 c -1.31092,2.22108 -2.06441,2.28464 -1.85937,0.1582 0.13077,-1.35447 0.38618,-1.64915 1.53516,-1.78125 z m 59.29297,5.07422 c -2.69768,0.0151 -3.0078,0.55902 -1.71875,3.03124 0.93789,1.79883 1.15481,3.0505 1.21094,6.99024 0.0639,4.49163 0.18026,5.00503 1.83203,8.00586 0.9705,1.76364 1.9129,4.05113 2.09375,5.08203 0.18444,1.05146 0.61868,1.87305 0.98828,1.87305 0.93086,0 5.79492,-7.81199 5.79492,-9.30664 0,-0.68107 -0.78325,-2.46243 -1.74219,-3.96094 -0.95886,-1.49847 -2.55998,-4.35621 -3.55664,-6.34961 -2.30838,-4.61688 -3.00033,-5.37465 -4.90234,-5.36523 z m -51.52149,3.5664 c 0.86136,0.0847 2.21852,0.67208 2.20118,1.10352 -0.0113,0.31408 -0.54453,1.56525 -1.18164,2.7832 l -1.15821,2.21484 -0.36133,-2.88086 c -0.19804,-1.58468 -0.2547,-2.98557 -0.12695,-3.11328 0.10772,-0.10771 0.33979,-0.13577 0.62695,-0.10742 z m -13.34375,2.92188 c 0.21619,0 0.92056,0.56273 1.56641,1.25 1.44692,1.53962 4.65405,1.75993 5.46094,0.375 0.43581,-0.7479 0.51024,-0.7577 0.52344,-0.0762 0.008,0.43854 -0.39558,1.16807 -0.89844,1.62305 -1.4702,1.33005 -2.97171,0.98431 -5.08594,-1.17187 -1.07819,-1.09966 -1.7826,-1.99805 -1.56641,-1.99805 z m -6.18359,0.5 c -0.91661,0 -1.25,0.26722 -1.25,1 0,1.15729 0.40153,1.23297 1.625,0.30468 1.20714,-0.916 1.09554,-1.30273 -0.375,-1.30273 z m 119.01758,4.74804 c -1.40058,0.0227 -3.12447,0.31673 -5.26758,0.88086 l -4.25,1.11914 -0.15234,2.40821 c -0.096,1.50421 0.44734,4.83274 1.44922,8.87109 0.88199,3.5554 1.81225,6.46484 2.06835,6.46484 0.25626,0 2.4189,-1.9676 4.80469,-4.37304 6.78218,-6.83811 8.43841,-11.20245 5.35352,-14.09961 -0.9385,-0.88143 -2.20514,-1.30078 -4.00586,-1.27149 z m -57.4961,2.25 c -2.49996,0 -4.30352,0.23168 -4.67187,0.59961 -0.3617,0.3617 -0.59961,2.11266 -0.59961,4.4043 0,2.29379 -0.24792,4.1122 -0.625,4.58203 -1.39317,1.7365 -8.81666,7.13422 -11.625,8.45313 -1.64999,0.77495 -4.68744,1.75189 -6.75,2.17187 -2.06249,0.42002 -5.04125,1.42529 -6.62109,2.23438 -2.38825,1.22343 -2.78875,1.31588 -2.375,0.54296 0.27363,-0.51114 0.49609,-2.19135 0.49609,-3.73242 0,-3.38785 -1.41931,-6.47691 -3.52734,-7.67578 -1.81852,-1.03423 -1.8725,-1.58398 -0.15625,-1.58398 1.26217,0 1.30319,-0.09 1.06054,-2.24219 -0.34734,-3.0802 -1.59598,-4.94066 -2.86133,-4.26367 -0.52255,0.27968 -3.43042,0.50976 -6.46289,0.50976 h -5.51367 l -0.64453,2.12305 c -0.39012,1.28651 -0.62808,4.58917 -0.60351,8.37305 0.034,5.40676 0.22754,6.81952 1.42773,10.49609 2.76654,8.47487 8.81557,18.49131 12.9043,21.36719 v 0.002 c 2.27232,1.59829 5.02392,1.47167 8.77929,-0.4043 3.91627,-1.95632 9.80427,-7.45632 13.25196,-12.375 4.57387,-6.5252 11.15349,-11.75749 17.0957,-13.5957 3.13376,-0.96945 3.75,-1.76114 3.75,-4.81836 v -2.66992 l 1.875,-0.008 c 1.03124,-0.004 2.40717,-0.15036 3.05664,-0.32422 1.09425,-0.29291 1.16411,-0.51354 0.95703,-3.00977 -0.28157,-3.3942 -2.27255,-6.37239 -5.34179,-7.99218 -1.78462,-0.94201 -2.97814,-1.16407 -6.2754,-1.16407 z m 21.14063,3.99805 v 0.002 c -0.97361,0 -3.71323,3.86897 -7.08203,10 -2.96625,5.39834 -3.44785,8.24704 -3.51758,20.82618 -0.0582,10.52345 -0.008,11.15591 0.98633,12.49609 0.57649,0.77635 1.589,1.69376 2.25,2.03906 0.73194,0.38234 2.66747,0.57805 4.95117,0.5 l 3.75,-0.12695 -0.16211,-1.85938 c -0.15987,-1.84059 -0.13945,-1.86271 2.25,-2.45508 1.98799,-0.49277 3.00895,-1.22101 5.80859,-4.14062 1.86811,-1.9482 3.51373,-4.00549 3.65625,-4.57227 0.14249,-0.56681 0.0769,-3.26594 -0.14648,-5.99804 l -0.40625,-4.9668 -2.25,0.0781 c -1.23749,0.0435 -3.36315,0.56135 -4.72461,1.15039 -2.42797,1.05048 -2.4588,1.05088 -1.55859,0.0566 1.08597,-1.19963 5.60885,-3.53516 6.8457,-3.53516 1.57251,0 2.4375,-1.4329 2.4375,-4.03711 0,-2.46315 -0.008,-2.47266 -6.07812,-8.96094 -3.58466,-3.83074 -6.46015,-6.49609 -7.00977,-6.49609 z m -100.05859,2.69922 c 0.0574,0.034 0.0745,0.34054 0.0957,0.89258 0.0824,2.16861 -0.8137,3.87792 -3.63281,6.92187 -2.80778,3.03171 -4.46753,6.41887 -6.34766,12.95703 -0.76804,2.67058 -1.53689,4.19149 -2.71875,5.37305 -2.29346,2.2927 -4.59491,2.25567 -8.26562,-0.12891 -1.50324,-0.97663 -3.37001,-1.9064 -4.14844,-2.06836 -0.99772,-0.20749 -1.22195,-0.41512 -0.75586,-0.70312 0.92742,-0.57301 2.74793,-0.062 5.73047,1.61133 4.92045,2.76011 6.12662,1.88008 8.92578,-6.51758 2.07583,-6.22764 3.67816,-8.97429 7.40625,-12.70117 1.46532,-1.46483 2.90877,-3.43424 3.20898,-4.375 0.28914,-0.90535 0.42825,-1.30715 0.50196,-1.26172 z m 114.16601,0.375 c -0.95047,-0.0265 -1.96795,0.32958 -2.79101,1.15234 -1.41891,1.41846 -1.54612,2.59464 -0.44922,4.16016 0.962,1.37295 2.47176,1.41175 4.5957,0.11719 1.2438,-0.7581 1.625,-1.33709 1.625,-2.46875 0,-1.80095 -1.39643,-2.91314 -2.98047,-2.95899 z m -185.32422,6.42383 c 0,0 1.40279,1.23229 3.02149,2.73828 l 2.94336,2.73828 -0.83008,2.56836 C 576.37389,529.98629 576,532.22389 576,533.54688 c 0,2.16907 -0.18219,2.55636 -1.86328,3.9414 -1.02512,0.84469 -2.44141,1.53516 -2.44141,1.53516 z m 187.64649,2.84961 c -0.58126,0.0189 -1.01744,0.0877 -1.17969,0.22265 -1.02527,0.85074 -0.61972,13.159 0.62695,19.04297 0.2555,1.20665 -0.13945,1.77583 -3.25,4.69336 -3.69218,3.46258 -4.1219,4.29178 -2.66406,5.14063 2.51225,1.46279 5.60004,0.0797 8.16211,-3.65821 0.65817,-0.96026 2.04415,-2.22264 3.08008,-2.80469 1.49306,-0.83886 1.88281,-1.35565 1.88281,-2.49023 0,-1.33705 -1.43343,-3.00576 -3.15039,-3.66797 -0.38151,-0.14702 -0.19011,-0.53273 0.52539,-1.06054 1.29196,-0.95313 1.45494,-2.64408 0.39062,-4.05079 -0.95837,-1.26735 -0.94834,-2.19016 0.0332,-3.27734 0.72695,-0.80304 0.72928,-1.0279 0.0273,-2.43555 -0.75005,-1.50364 -0.73623,-1.56698 0.44922,-2.01758 1.23583,-0.46971 1.68359,-2.14357 0.73047,-2.73242 -0.87284,-0.53934 -3.92218,-0.95499 -5.66602,-0.90234 z m 19.06836,3.29492 c -1.50206,-0.0151 -2.90908,0.45844 -4.10938,1.40234 -1.11897,0.87988 -1.30078,1.4056 -1.30078,3.76758 0,3.00903 0.29175,3.74361 2.78125,7.00391 0.92315,1.20892 1.82334,2.96725 2,3.9082 0.28649,1.52644 0.51673,1.73203 2.14453,1.9043 5.72685,0.60601 9.25834,0.1569 10.18164,-1.29493 0.62287,-0.97923 0.4417,-4.57644 -0.3418,-6.79687 -1.07024,-3.03296 -5.93415,-8.3326 -8.57226,-9.33984 -0.94647,-0.36133 -1.88201,-0.54607 -2.7832,-0.55469 z m -59.89649,8.4082 c -1.76375,-0.0378 -4.30559,1.62249 -5.84961,4.12695 -1.60429,2.60232 -2.50673,3.3125 -4.20703,3.3125 -1.4369,0 -3.31524,1.78421 -5.36133,5.09375 -1.35133,2.18582 -1.01951,3.28263 1.07227,3.54493 0.87035,0.10922 3.89511,0.23545 6.72265,0.27929 7.41,0.11528 9.56863,-1.0554 10.63086,-5.76367 0.46693,-2.06955 -0.5895,-8.78184 -1.56836,-9.96094 -0.34922,-0.42073 -0.85154,-0.62045 -1.43945,-0.63281 z m -51.32617,0.0566 c -0.1542,-0.008 -0.29517,0.0113 -0.41797,0.0586 -0.40656,0.15609 -1.401,1.74203 -2.20898,3.52343 -1.60815,3.54546 -3.68202,6.7777 -6.66993,10.39649 l -1.9375,2.34765 1.64844,0.27735 c 0.90682,0.15193 2.77345,0.34964 4.14844,0.4414 v 0.002 c 1.37503,0.0918 6.05506,0.31174 10.03906,0.28906 6.23324,-0.034 6.90464,0.10883 7.03711,-0.58203 0.20712,-1.07804 -4.68802,-9.11326 -5.75781,-9.31055 -0.61886,-0.11414 -1.10007,0.34733 -1.33984,1.625 -0.67136,3.57736 -3.85285,4.54833 -4.12891,1.25977 -0.12057,-1.43815 0.0888,-1.95312 1.04883,-2.58203 1.70585,-1.11735 2.64278,-3.5771 1.94531,-5.10743 -0.59822,-1.31247 -2.32595,-2.59176 -3.40625,-2.63867 z m 130.04688,2.95508 v 0.002 c -0.12813,0.003 -0.26267,0.0121 -0.40626,0.0234 -1.54151,0.14967 -1.58653,0.22525 -1.97265,3.35742 -0.26419,2.1453 -0.21553,3.38535 0.14844,3.75 0.34545,0.34583 4.20033,0.60122 10.55859,0.69922 l 10.01562,0.1543 3.04688,2.24219 c 3.159,2.32475 4.9769,2.68001 5.29102,1.0332 0.34809,-1.82483 -0.46699,-3.32331 -2.60938,-4.79688 -1.20261,-0.82715 -2.65719,-2.29808 -3.23047,-3.26953 -1.3392,-2.269 -3.56589,-2.4414 -5.6582,-0.4375 -1.21935,1.1678 -1.42697,1.22722 -1.71289,0.48242 -0.17877,-0.46616 -0.95097,-1.17152 -1.71485,-1.5664 -1.25718,-0.64989 -1.50704,-0.62536 -2.63281,0.25976 -1.23787,0.97327 -1.24815,0.97244 -2.58398,-0.0781 -1.14051,-0.89685 -1.53587,-0.96781 -2.62305,-0.47266 -1.10804,0.50468 -1.37864,0.44157 -2.01367,-0.46484 -0.46681,-0.66622 -1.00588,-0.93562 -1.90234,-0.91797 z m -25.65821,2.49805 c -2.77999,0.0854 -4.34854,3.85528 -1.78515,5.87109 1.56139,1.22782 1.73461,1.2508 3.44726,0.4707 2.48001,-1.12951 2.20945,-5.21712 -0.40625,-6.13671 -0.43816,-0.15421 -0.85871,-0.21718 -1.25586,-0.20508 z m -192.60742,7.94336 c -0.90735,-0.0488 -1.75698,0.43636 -2.36719,1.43945 -0.7254,1.1924 -1.05105,1.36171 -1.79883,0.94336 -1.23575,-0.69135 -3.18723,0.23434 -3.77929,1.79101 -1.24989,3.28634 2.04122,6.2633 4.48242,4.05469 0.7474,-0.67616 0.92518,-0.65009 1.74023,0.25 1.12672,1.24449 1.50592,1.24863 3.20508,0.0391 1.3375,-0.95206 1.3603,-0.95206 1.95508,0 0.80515,1.28882 2.35864,1.22069 3.31641,-0.14648 0.92825,-1.32495 1.00031,-3.35281 0.18359,-5.14453 -0.47985,-1.05286 -0.89247,-1.27798 -2.14648,-1.16992 -1.0616,0.0915 -1.90163,-0.21432 -2.65625,-0.96875 -0.68958,-0.68931 -1.42909,-1.0501 -2.13477,-1.08789 z"
         style="opacity:1;fill:#ffffff;fill-opacity:1;stroke-width:0.49991748"
         inkscape:connector-curvature="0" />
    </g>
  </g>
</svg>
