<?xml version="1.0" encoding="UTF-8" standalone="no"?>
<!-- Created with Inkscape (http://www.inkscape.org/) -->

<svg
   xmlns:dc="http://purl.org/dc/elements/1.1/"
   xmlns:cc="http://creativecommons.org/ns#"
   xmlns:rdf="http://www.w3.org/1999/02/22-rdf-syntax-ns#"
   xmlns:svg="http://www.w3.org/2000/svg"
   xmlns="http://www.w3.org/2000/svg"
   xmlns:sodipodi="http://sodipodi.sourceforge.net/DTD/sodipodi-0.dtd"
   xmlns:inkscape="http://www.inkscape.org/namespaces/inkscape"
   width="750"
   height="259.90225"
   viewBox="0 0 198.4375 68.765806"
   version="1.1"
   id="svg1013"
   inkscape:version="0.92.4 (5da689c313, 2019-01-14)"
   sodipodi:docname="WCW (1988-1999) Logo.svg">
  <title
     id="title1571">WCW (1988-1999) Logo</title>
  <defs
     id="defs1007" />
  <sodipodi:namedview
     id="base"
     pagecolor="#ffffff"
     bordercolor="#666666"
     borderopacity="1.0"
     inkscape:pageopacity="0.0"
     inkscape:pageshadow="2"
     inkscape:zoom="0.476"
     inkscape:cx="21.008409"
     inkscape:cy="112.09398"
     inkscape:document-units="px"
     inkscape:current-layer="layer1"
     showgrid="false"
     units="px"
     inkscape:showpageshadow="false"
     inkscape:snap-global="false"
     fit-margin-top="0"
     fit-margin-left="0"
     fit-margin-right="0"
     fit-margin-bottom="0"
     inkscape:window-width="1920"
     inkscape:window-height="1051"
     inkscape:window-x="-9"
     inkscape:window-y="-9"
     inkscape:window-maximized="1" />
  <metadata
     id="metadata1010">
    <rdf:RDF>
      <cc:Work
         rdf:about="">
        <dc:format>image/svg+xml</dc:format>
        <dc:type
           rdf:resource="http://purl.org/dc/dcmitype/StillImage" />
        <dc:title>WCW (1988-1999) Logo</dc:title>
      </cc:Work>
    </rdf:RDF>
  </metadata>
  <g
     inkscape:label="Layer 1"
     inkscape:groupmode="layer"
     id="layer1"
     transform="translate(-33.072915,-130.32542)">
    <g
       id="g831"
       transform="translate(-5.0000005e-7,-3.4623974e-6)">
      <path
         id="path1569"
         d="m 140.19713,130.32548 c -2.47151,-0.004 -5.17,0.19331 -6.8678,0.55449 -9.84367,2.09405 -18.0617,8.71527 -22.81463,18.38131 -0.58153,1.18266 -1.34885,3.00626 -1.70532,4.05246 -5.84007,17.13989 1.20283,34.39532 17.25321,42.26926 3.47159,1.70308 7.64174,2.94293 11.33006,3.3693 h 5.3e-4 c 1.88061,0.21732 5.99913,0.17274 7.85637,-0.0853 6.78907,-0.94315 12.6745,-3.88497 18.31877,-9.15655 l 1.2821,-1.19734 -0.002,-9.20512 -0.002,-9.20512 -0.85111,0.99218 c -4.20217,4.90016 -9.42483,8.63102 -14.20223,10.14512 -2.73003,0.86523 -4.21769,1.0691 -7.10655,0.9741 -3.0646,-0.10072 -4.95233,-0.52907 -7.36234,-1.6707 -6.66325,-3.15641 -10.50168,-9.23946 -10.50168,-16.64343 0,-4.83924 1.66833,-8.95284 4.90668,-12.09745 3.65722,-3.55135 8.48594,-5.12521 15.0089,-4.89169 2.8885,0.10341 4.52807,0.34304 7.68222,1.12345 1.12331,0.27793 2.06176,0.48178 2.08566,0.45268 0.0238,-0.029 -1.7294,-3.95792 -3.89641,-8.73073 -2.90898,-6.40702 -4.02787,-8.71035 -4.2757,-8.80205 -0.18462,-0.0683 -1.17392,-0.24704 -2.19832,-0.39739 -1.05403,-0.15469 -2.45535,-0.22932 -3.93826,-0.23151 z"
         style="fill:#3338a1;fill-opacity:1;stroke:none;stroke-width:5.00004435;stroke-miterlimit:4;stroke-dasharray:none;stroke-opacity:1;paint-order:markers stroke fill"
         inkscape:connector-curvature="0" />
      <path
         id="path814"
         d="m 52.290865,131.65305 -19.217949,0.19895 7.561812,15.67243 c 0,0 8.729483,18.06361 13.134081,27.20971 1.883902,3.91191 7.076572,14.68334 7.076572,14.68334 l 3.69538,7.52615 c 0,0 3.409892,-7.63688 7.524607,-16.91627 4.114715,-9.27939 9.034571,-20.36972 10.932665,-24.64553 l 3.450953,-7.7742 -0.692465,-0.99271 -10.642245,-14.93035 -8.72608,19.86235 -1.857254,3.96979 -6.186701,-11.91659 z m 44.012299,0.0749 -2.622579,6.03736 c -1.442453,3.32056 -5.893297,13.55621 -9.890352,22.74589 -3.997055,9.1897 -7.267258,16.79369 -7.267258,16.89768 0,0.104 4.563547,9.42578 4.563547,9.42578 l 4.70979,9.60923 0.274918,0.36949 2.305804,-5.00331 c 0,0 21.965936,-50.33087 24.221266,-55.4762 1.08278,-2.47028 1.96887,-4.59145 1.96887,-4.59145 z"
         style="fill:#3338a1;fill-opacity:1;stroke:none;stroke-width:5.00004435;stroke-miterlimit:4;stroke-dasharray:none;stroke-opacity:1;paint-order:markers stroke fill"
         inkscape:connector-curvature="0" />
      <path
         id="path827"
         d="m 231.51042,131.64581 -17.94671,0.004 -6.15467,14.18156 c 0,0 -7.84403,18.05191 -9.90895,22.78259 -2.06492,4.73066 -3.75378,8.76639 -3.75378,8.76639 l 4.77387,9.8888 v 5.3e-4 l 4.96921,9.34569 5.24206,-11.95638 c 0,0 7.77815,-17.83102 11.11715,-25.47286 3.33897,-7.64186 8.86664,-20.29592 8.86664,-20.29592 l 2.79518,-6.82285 z m -39.09581,0.0501 -3.99097,8.9209 -6.6921,15.00891 -6.13967,-11.9507 -6.0477,-11.94707 -19.24895,-0.0155 3.34915,7.04557 23.95513,49.6626 4.14496,8.39432 2.83962,-6.16035 18.80971,-42.39896 0.29248,-0.6749 -5.60844,-7.91527 z"
         style="fill:#3338a1;fill-opacity:1;stroke:none;stroke-width:5.00004435;stroke-miterlimit:4;stroke-dasharray:none;stroke-opacity:1;paint-order:markers stroke fill"
         inkscape:connector-curvature="0" />
    </g>
  </g>
</svg>
