<?xml version="1.0" encoding="utf-8"?>
<!-- Generator: Adobe Illustrator 24.2.3, SVG Export Plug-In . SVG Version: 6.00 Build 0)  -->
<svg version="1.1" id="Logo" xmlns="http://www.w3.org/2000/svg" xmlns:xlink="http://www.w3.org/1999/xlink" x="0px" y="0px"
	 viewBox="0 0 445 232" style="enable-background:new 0 0 445 232;" xml:space="preserve">
<g>
	<polygon points="34.6,0 0.1,0 67,116 0.1,232 34.6,232 34.6,232 84.3,232 84.3,202 51.9,202 84.3,145.9 134,232 168.5,232 	"/>
	<polygon points="168.5,0 149.3,0 134,0 84.5,0 84.5,30 116.7,30 87.3,81.1 104.5,111 	"/>
	<path d="M177,153.6l-28.7-96.5H172l17.3,65.8l17.3-65.8h21.7l-28.7,96.5v47.8H177L177,153.6L177,153.6z"/>
	<path d="M235.5,57.2h22.7v123.7h37.3v20.6h-60L235.5,57.2L235.5,57.2z"/>
	<path d="M300.7,91.8c0-23.1,12.2-36.3,34.4-36.3s34.4,13.2,34.4,36.3v75.1c0,23.1-12.2,36.3-34.4,36.3s-34.4-13.2-34.4-36.3V91.8z
		 M323.4,168.3c0,10.3,4.5,14.2,11.8,14.2c7.2,0,11.8-3.9,11.8-14.2V90.3c0-10.3-4.5-14.2-11.8-14.2c-7.2,0-11.8,3.9-11.8,14.2
		V168.3z"/>
	<path d="M374.8,57.2h70.1v20.6h-23.7v123.7h-22.7V77.8h-23.7L374.8,57.2L374.8,57.2z"/>
</g>
</svg>
